<svg width="1670" height="70" viewBox="0 0 1670 70" fill="none" xmlns="http://www.w3.org/2000/svg">
<path d="M267.16 18.2366C267.714 16.452 269.964 15.829 271.333 17.1383L271.334 17.1373L278.673 23.9204C279.504 23.5081 280.58 23.2305 281.708 23.0421C283.226 22.7884 285 22.6716 286.77 22.68C288.541 22.6884 290.335 22.8217 291.896 23.0781C293.098 23.2756 294.229 23.5568 295.112 23.9464C295.997 23.1007 297.472 21.693 298.824 20.4023C299.646 19.6169 300.424 18.8744 300.995 18.3287C301.281 18.056 301.515 17.832 301.678 17.6765C301.759 17.5987 301.823 17.5377 301.867 17.4964C301.888 17.4759 301.905 17.46 301.916 17.4494C301.921 17.4442 301.926 17.4401 301.929 17.4374C301.93 17.4362 301.931 17.435 301.932 17.4344L301.935 17.4324C303.321 16.1156 305.646 16.7198 306.143 18.6028L307.132 22.2739L307.138 22.2979L307.143 22.3219C307.647 24.6636 307.515 26.656 306.763 28.3357C306.011 30.0157 304.688 31.2725 303.014 32.2339L303.013 32.2329L300.507 33.6843L299.559 32.0468L302.068 30.5934L302.071 30.5924C303.5 29.771 304.488 28.7822 305.035 27.5625C305.579 26.3476 305.734 24.7931 305.298 22.746L304.313 19.0909L304.312 19.0859C304.193 18.636 303.613 18.4489 303.238 18.8048C303.237 18.8054 303.236 18.8059 303.235 18.8068C303.232 18.8095 303.228 18.8137 303.223 18.8188C303.212 18.8294 303.196 18.8453 303.174 18.8658C303.131 18.9071 303.066 18.9681 302.985 19.0459C302.822 19.2015 302.587 19.4253 302.302 19.6981C301.73 20.2438 300.954 20.9864 300.131 21.7717C298.486 23.3426 296.658 25.0864 295.932 25.7799L295.405 26.2841L294.784 25.902C294.177 25.5291 293.065 25.1892 291.589 24.9467C290.143 24.7092 288.451 24.5806 286.761 24.5726C285.07 24.5645 283.408 24.6768 282.02 24.9087C280.587 25.1479 279.596 25.4918 279.12 25.851L278.489 26.3281L270.05 18.5267L270.041 18.5187L270.032 18.5097C269.699 18.1848 269.101 18.3247 268.962 18.8158L268.953 18.8488L268.941 18.8808L268.94 18.8848C268.938 18.8883 268.936 18.8937 268.934 18.9008C268.928 18.9153 268.921 18.9375 268.911 18.9659C268.891 19.0226 268.861 19.106 268.826 19.2099C268.754 19.4183 268.656 19.7091 268.552 20.0382C268.339 20.7077 268.115 21.4883 268.016 22.0578C267.401 26.413 269.216 28.9264 271.249 30.3303L273.892 31.8468L273.422 32.668L272.951 33.4883L270.265 31.9478L270.232 31.9288L270.201 31.9078C267.625 30.1412 265.407 26.9399 266.146 21.7707L266.147 21.7567L266.15 21.7437C266.272 21.0372 266.531 20.1474 266.747 19.466C266.857 19.1189 266.96 18.813 267.035 18.5938C267.073 18.4842 267.104 18.396 267.126 18.3347C267.137 18.304 267.145 18.2792 267.151 18.2626C267.154 18.2546 267.157 18.248 267.158 18.2436C267.159 18.2416 267.16 18.2398 267.16 18.2386V18.2366Z" fill="#FF4707"/>
<path d="M274.694 36.3343C272.891 37.1012 270.161 38.7558 267.298 41.3388L267.296 41.3408C264.815 43.5652 262.694 46.1552 260.98 48.9842C257.734 54.3444 256.184 60.5818 256.054 66.9146V66.9166L255.988 69.7995L255.042 69.7785L254.096 69.7565L254.162 66.8736C254.297 60.2647 255.916 53.6915 259.361 48.0029C261.168 45.0221 263.405 42.2868 266.029 39.9334L266.59 39.4373C269.381 37.0143 272.054 35.3999 273.954 34.5918L274.694 36.3343Z" fill="#FF4707"/>
<path d="M281.72 36.2344V38.127H279.432V36.2344H281.72Z" fill="#FF4707"/>
<path d="M294.069 36.2344V38.127H291.78V36.2344H294.069Z" fill="#FF4707"/>
<path d="M293.121 54.4575C293.121 53.5593 292.528 52.2289 291.433 51.5046C290.288 50.7474 288.585 50.3633 286.495 50.3633C284.426 50.3633 282.703 50.7478 281.559 51.5046C280.465 52.2276 279.87 53.5788 279.87 54.4575C279.87 54.8878 280.015 55.5795 280.33 56.2761C280.647 56.9744 281.079 57.5552 281.559 57.8726C282.745 58.6571 284.494 59.1899 286.495 59.19C288.489 59.19 290.245 58.6388 291.442 57.8666C291.915 57.5611 292.344 56.9904 292.66 56.2931C292.975 55.5985 293.121 54.9008 293.121 54.4575ZM295.014 54.4575C295.014 55.2249 294.785 56.1896 294.385 57.0743C293.985 57.9558 293.359 58.8821 292.468 59.457C290.936 60.4457 288.816 61.0825 286.495 61.0825C284.183 61.0824 282.058 60.4712 280.515 59.451C279.63 58.8659 279.006 57.9383 278.607 57.0573C278.207 56.1747 277.978 55.2158 277.978 54.4575C277.978 52.959 278.879 51.0081 280.515 49.9261C282.1 48.8784 284.251 48.4708 286.495 48.4707C288.763 48.4707 290.892 48.8787 292.476 49.9261C294.11 51.0068 295.014 52.9346 295.014 54.4575Z" fill="#FF4707"/>
<path d="M275.159 29.9862C274.508 32.9617 274.856 38.4954 275.801 43.6513C276.27 46.2078 276.875 48.6164 277.55 50.5084C277.887 51.4552 278.235 52.2521 278.58 52.8661C278.935 53.4984 279.244 53.8563 279.47 54.0165L278.376 55.5609C277.81 55.1598 277.334 54.5134 276.93 53.7934C276.515 53.0549 276.126 52.1509 275.767 51.1436C275.049 49.1273 274.42 46.6139 273.94 43.9924C272.986 38.7922 272.575 32.9457 273.31 29.582L275.159 29.9862Z" fill="#FF4707"/>
<path d="M294.843 55.7207C294.647 55.8186 294.413 55.8773 294.298 55.9047C294.227 55.9217 294.163 55.9355 294.117 55.9447C294.094 55.9494 294.074 55.9531 294.06 55.9557C294.053 55.957 294.047 55.9579 294.043 55.9587C294.041 55.9591 294.04 55.9595 294.038 55.9597L294.036 55.9607H294.035L293.705 54.0962L293.712 54.0952C293.719 54.0938 293.731 54.0921 293.746 54.0892C293.776 54.0832 293.816 54.0746 293.86 54.0641C293.976 54.0365 294.017 54.0182 293.997 54.0281L294.843 55.7207Z" fill="#FF4707"/>
<path d="M300.492 29.5723C300.854 31.1641 300.89 33.4548 300.72 35.9552C300.549 38.4788 300.162 41.299 299.631 43.9896C299.101 46.6768 298.422 49.263 297.661 51.3119C297.282 52.3348 296.872 53.248 296.437 53.9807C296.017 54.6885 295.511 55.3367 294.893 55.6942L293.944 54.0557C294.135 53.9454 294.438 53.6394 294.809 53.0144C295.165 52.4143 295.529 51.6156 295.887 50.6527C296.601 48.7293 297.255 46.2482 297.773 43.6225C298.291 41.0004 298.667 38.2608 298.832 35.8272C298.998 33.3706 298.944 31.306 298.646 29.9924L300.492 29.5723Z" fill="#FF4707"/>
<path d="M282.192 53.5469C282.963 54.3181 284.519 54.9769 286.255 55.0983C287.977 55.2188 289.637 54.7951 290.709 53.7059L292.058 55.0343C290.466 56.6521 288.176 57.1305 286.123 56.9869C284.084 56.8443 282.041 56.073 280.854 54.8853L282.192 53.5469Z" fill="#FF4707"/>
<path d="M299.65 43.1787C299.65 43.1794 299.649 43.1807 299.65 43.1817C299.65 43.1837 299.652 43.1865 299.653 43.1897C299.655 43.1963 299.659 43.2052 299.663 43.2167C299.671 43.2403 299.683 43.2746 299.698 43.3188C299.728 43.4071 299.77 43.5367 299.823 43.7049C299.929 44.0417 300.078 44.5361 300.252 45.1753C300.599 46.4542 301.045 48.3156 301.448 50.663C302.254 55.3574 302.889 62.0046 302.21 69.8368L300.324 69.6728C300.987 62.0317 300.367 55.5498 299.583 50.9831C299.191 48.7003 298.758 46.8974 298.425 45.6705C298.259 45.0575 298.117 44.5885 298.018 44.2751C297.969 44.1183 297.929 44.0002 297.903 43.923C297.89 43.8845 297.881 43.8561 297.874 43.8379C297.871 43.8288 297.869 43.8218 297.867 43.8179L297.866 43.8139L299.649 43.1777L299.65 43.1787Z" fill="#FF4707"/>
<path d="M294.074 0C296.485 0.0438568 298.032 0.915348 298.929 2.25369C299.67 3.35811 299.877 4.65872 299.928 5.71574L305.09 7.78637L299.857 10.4032C299.534 12.124 298.563 14.3979 296.584 16.315C294.376 18.4536 290.969 20.0981 285.969 20.0981C275.793 20.0981 271.39 11.8602 270.436 8.11547L270.136 6.93511H287.607C287.538 5.77128 287.68 4.39722 288.264 3.16696C288.666 2.32164 289.28 1.53642 290.178 0.957291C291.076 0.378301 292.204 0.0388892 293.581 0.00200061L294.074 0ZM293.632 1.89458C292.544 1.92372 291.765 2.18597 291.204 2.54777C290.643 2.90958 290.246 3.40488 289.974 3.97921C289.414 5.15879 289.398 6.63807 289.605 7.70134L289.824 8.82768H272.649C274.01 12.4386 277.986 18.2045 285.969 18.2045C290.52 18.2045 293.442 16.7236 295.267 14.9555C297.116 13.1645 297.896 11.0255 298.059 9.66194L298.12 9.15578L300.479 7.97542L298.052 7.00313V6.36293C298.052 5.29446 297.925 4.15474 297.357 3.30801C296.845 2.5454 295.845 1.83505 293.632 1.89458Z" fill="#FF4707"/>
<path d="M285.2 19.1973V22.5873H287.622V24.4799H283.308V19.1973H285.2Z" fill="#FF4707"/>
<path d="M288.985 19.1973V22.5873H291.407V24.4799H287.093V19.1973H288.985Z" fill="#FF4707"/>
<path d="M290.122 10.2518C288.391 14.3691 285.686 16.4429 282.963 17.2269C280.293 17.9959 277.67 17.5031 276.084 16.6077L277.014 14.9592C278.157 15.6045 280.256 16.0369 282.439 15.4084C284.57 14.7947 286.85 13.1481 288.377 9.51758L290.122 10.2518Z" fill="#FF4707"/>
<path d="M296.382 5.2832V6.99972H294.489V5.2832H296.382Z" fill="#FF4707"/>
<path d="M1444.49 18.2366C1445.05 16.452 1447.3 15.829 1448.67 17.1383L1448.67 17.1373L1456 23.9204C1456.84 23.5081 1457.91 23.2305 1459.04 23.0421C1460.56 22.7884 1462.33 22.6716 1464.1 22.68C1465.87 22.6884 1467.67 22.8217 1469.23 23.0781C1470.43 23.2756 1471.56 23.5568 1472.44 23.9464C1473.33 23.1007 1474.8 21.693 1476.16 20.4023C1476.98 19.6169 1477.76 18.8744 1478.33 18.3287C1478.61 18.056 1478.85 17.832 1479.01 17.6765C1479.09 17.5987 1479.16 17.5377 1479.2 17.4964C1479.22 17.4759 1479.24 17.46 1479.25 17.4494C1479.25 17.4442 1479.26 17.4401 1479.26 17.4374C1479.26 17.4362 1479.26 17.435 1479.26 17.4344L1479.27 17.4324C1480.65 16.1156 1482.98 16.7198 1483.47 18.6028L1484.46 22.2739L1484.47 22.2979L1484.48 22.3219C1484.98 24.6636 1484.85 26.656 1484.1 28.3357C1483.34 30.0157 1482.02 31.2725 1480.35 32.2339L1480.35 32.2329L1477.84 33.6843L1476.89 32.0468L1479.4 30.5934L1479.4 30.5924C1480.83 29.771 1481.82 28.7822 1482.37 27.5625C1482.91 26.3476 1483.07 24.7931 1482.63 22.746L1481.65 19.0909L1481.64 19.0859C1481.53 18.636 1480.94 18.4489 1480.57 18.8048C1480.57 18.8054 1480.57 18.8059 1480.57 18.8068C1480.56 18.8095 1480.56 18.8137 1480.56 18.8188C1480.54 18.8294 1480.53 18.8453 1480.51 18.8658C1480.46 18.9071 1480.4 18.9681 1480.32 19.0459C1480.15 19.2015 1479.92 19.4253 1479.63 19.6981C1479.06 20.2438 1478.29 20.9864 1477.46 21.7717C1475.82 23.3426 1473.99 25.0864 1473.26 25.7799L1472.74 26.2841L1472.12 25.902C1471.51 25.5291 1470.4 25.1892 1468.92 24.9467C1467.48 24.7092 1465.78 24.5806 1464.09 24.5726C1462.4 24.5645 1460.74 24.6768 1459.35 24.9087C1457.92 25.1479 1456.93 25.4918 1456.45 25.851L1455.82 26.3281L1447.38 18.5267L1447.37 18.5187L1447.36 18.5097C1447.03 18.1848 1446.43 18.3247 1446.29 18.8158L1446.28 18.8488L1446.27 18.8808L1446.27 18.8848C1446.27 18.8883 1446.27 18.8937 1446.27 18.9008C1446.26 18.9153 1446.25 18.9375 1446.24 18.9659C1446.22 19.0226 1446.19 19.106 1446.16 19.2099C1446.09 19.4183 1445.99 19.7091 1445.88 20.0382C1445.67 20.7077 1445.45 21.4883 1445.35 22.0578C1444.73 26.413 1446.55 28.9264 1448.58 30.3303L1451.22 31.8468L1450.75 32.668L1450.28 33.4883L1447.6 31.9478L1447.56 31.9288L1447.53 31.9078C1444.96 30.1412 1442.74 26.9399 1443.48 21.7707L1443.48 21.7567L1443.48 21.7437C1443.6 21.0372 1443.86 20.1474 1444.08 19.466C1444.19 19.1189 1444.29 18.813 1444.37 18.5938C1444.4 18.4842 1444.44 18.396 1444.46 18.3347C1444.47 18.304 1444.48 18.2792 1444.48 18.2626C1444.49 18.2546 1444.49 18.248 1444.49 18.2436C1444.49 18.2416 1444.49 18.2398 1444.49 18.2386V18.2366Z" fill="#FF4707"/>
<path d="M1452.03 36.3343C1450.22 37.1012 1447.49 38.7558 1444.63 41.3388L1444.63 41.3408C1442.15 43.5652 1440.03 46.1552 1438.31 48.9842C1435.07 54.3444 1433.52 60.5818 1433.39 66.9146V66.9166L1433.32 69.7995L1432.37 69.7785L1431.43 69.7565L1431.49 66.8736C1431.63 60.2647 1433.25 53.6915 1436.69 48.0029C1438.5 45.0221 1440.74 42.2868 1443.36 39.9334L1443.92 39.4373C1446.71 37.0143 1449.39 35.3999 1451.29 34.5918L1452.03 36.3343Z" fill="#FF4707"/>
<path d="M1459.05 36.2344V38.127H1456.76V36.2344H1459.05Z" fill="#FF4707"/>
<path d="M1471.4 36.2344V38.127H1469.11V36.2344H1471.4Z" fill="#FF4707"/>
<path d="M1470.45 54.4575C1470.45 53.5593 1469.86 52.2289 1468.76 51.5046C1467.62 50.7474 1465.92 50.3633 1463.83 50.3633C1461.76 50.3633 1460.04 50.7478 1458.89 51.5046C1457.8 52.2276 1457.2 53.5788 1457.2 54.4575C1457.2 54.8878 1457.35 55.5795 1457.66 56.2761C1457.98 56.9744 1458.41 57.5552 1458.89 57.8726C1460.08 58.6571 1461.83 59.1899 1463.83 59.19C1465.82 59.19 1467.58 58.6388 1468.77 57.8666C1469.25 57.5611 1469.68 56.9904 1469.99 56.2931C1470.31 55.5985 1470.45 54.9008 1470.45 54.4575ZM1472.35 54.4575C1472.35 55.2249 1472.12 56.1896 1471.72 57.0743C1471.32 57.9558 1470.69 58.8821 1469.8 59.457C1468.27 60.4457 1466.15 61.0825 1463.83 61.0825C1461.51 61.0824 1459.39 60.4712 1457.85 59.451C1456.96 58.8659 1456.34 57.9383 1455.94 57.0573C1455.54 56.1747 1455.31 55.2158 1455.31 54.4575C1455.31 52.959 1456.21 51.0081 1457.85 49.9261C1459.43 48.8784 1461.58 48.4708 1463.83 48.4707C1466.09 48.4707 1468.22 48.8787 1469.81 49.9261C1471.44 51.0068 1472.35 52.9346 1472.35 54.4575Z" fill="#FF4707"/>
<path d="M1452.49 29.9862C1451.84 32.9617 1452.19 38.4954 1453.13 43.6513C1453.6 46.2078 1454.21 48.6164 1454.88 50.5084C1455.22 51.4552 1455.57 52.2521 1455.91 52.8661C1456.27 53.4984 1456.58 53.8563 1456.8 54.0165L1455.71 55.5609C1455.14 55.1598 1454.67 54.5134 1454.26 53.7934C1453.85 53.0549 1453.46 52.1509 1453.1 51.1436C1452.38 49.1273 1451.75 46.6139 1451.27 43.9924C1450.32 38.7922 1449.91 32.9457 1450.64 29.582L1452.49 29.9862Z" fill="#FF4707"/>
<path d="M1472.18 55.7207C1471.98 55.8186 1471.75 55.8773 1471.63 55.9047C1471.56 55.9217 1471.5 55.9355 1471.45 55.9447C1471.43 55.9494 1471.41 55.9531 1471.39 55.9557C1471.39 55.957 1471.38 55.9579 1471.38 55.9587C1471.37 55.9591 1471.37 55.9595 1471.37 55.9597L1471.37 55.9607H1471.37L1471.04 54.0962L1471.04 54.0952C1471.05 54.0938 1471.06 54.0921 1471.08 54.0892C1471.11 54.0832 1471.15 54.0746 1471.19 54.0641C1471.31 54.0365 1471.35 54.0182 1471.33 54.0281L1472.18 55.7207Z" fill="#FF4707"/>
<path d="M1477.82 29.5723C1478.19 31.1641 1478.22 33.4548 1478.05 35.9552C1477.88 38.4788 1477.49 41.299 1476.96 43.9896C1476.43 46.6768 1475.75 49.263 1474.99 51.3119C1474.61 52.3348 1474.2 53.248 1473.77 53.9807C1473.35 54.6885 1472.84 55.3367 1472.22 55.6942L1471.28 54.0557C1471.47 53.9454 1471.77 53.6394 1472.14 53.0144C1472.5 52.4143 1472.86 51.6156 1473.22 50.6527C1473.93 48.7293 1474.59 46.2482 1475.11 43.6225C1475.62 41.0004 1476 38.2608 1476.16 35.8272C1476.33 33.3706 1476.28 31.306 1475.98 29.9924L1477.82 29.5723Z" fill="#FF4707"/>
<path d="M1459.52 53.5469C1460.3 54.3181 1461.85 54.9769 1463.59 55.0983C1465.31 55.2188 1466.97 54.7951 1468.04 53.7059L1469.39 55.0343C1467.8 56.6521 1465.51 57.1305 1463.46 56.9869C1461.42 56.8443 1459.37 56.073 1458.19 54.8853L1459.52 53.5469Z" fill="#FF4707"/>
<path d="M1476.98 43.1787C1476.98 43.1794 1476.98 43.1807 1476.98 43.1817C1476.98 43.1837 1476.98 43.1865 1476.98 43.1897C1476.99 43.1963 1476.99 43.2052 1476.99 43.2167C1477 43.2403 1477.01 43.2746 1477.03 43.3188C1477.06 43.4071 1477.1 43.5367 1477.15 43.7049C1477.26 44.0417 1477.41 44.5361 1477.58 45.1753C1477.93 46.4542 1478.38 48.3156 1478.78 50.663C1479.59 55.3574 1480.22 62.0046 1479.54 69.8368L1477.66 69.6728C1478.32 62.0317 1477.7 55.5498 1476.91 50.9831C1476.52 48.7003 1476.09 46.8974 1475.76 45.6705C1475.59 45.0575 1475.45 44.5885 1475.35 44.2751C1475.3 44.1183 1475.26 44.0002 1475.24 43.923C1475.22 43.8845 1475.21 43.8561 1475.21 43.8379C1475.2 43.8288 1475.2 43.8218 1475.2 43.8179L1475.2 43.8139L1476.98 43.1777L1476.98 43.1787Z" fill="#FF4707"/>
<path d="M1471.41 0C1473.82 0.0438568 1475.36 0.915348 1476.26 2.25369C1477 3.35811 1477.21 4.65872 1477.26 5.71574L1482.42 7.78637L1477.19 10.4032C1476.87 12.124 1475.9 14.3979 1473.92 16.315C1471.71 18.4536 1468.3 20.0981 1463.3 20.0981C1453.12 20.0981 1448.72 11.8602 1447.77 8.11547L1447.47 6.93511H1464.94C1464.87 5.77128 1465.01 4.39722 1465.6 3.16696C1466 2.32164 1466.61 1.53642 1467.51 0.957291C1468.41 0.378301 1469.54 0.0388892 1470.91 0.00200061L1471.41 0ZM1470.96 1.89458C1469.88 1.92372 1469.1 2.18597 1468.54 2.54777C1467.98 2.90958 1467.58 3.40488 1467.31 3.97921C1466.75 5.15879 1466.73 6.63807 1466.94 7.70134L1467.16 8.82768H1449.98C1451.34 12.4386 1455.32 18.2045 1463.3 18.2045C1467.85 18.2045 1470.77 16.7236 1472.6 14.9555C1474.45 13.1645 1475.23 11.0255 1475.39 9.66194L1475.45 9.15578L1477.81 7.97542L1475.38 7.00313V6.36293C1475.38 5.29446 1475.26 4.15474 1474.69 3.30801C1474.18 2.5454 1473.18 1.83505 1470.96 1.89458Z" fill="#FF4707"/>
<path d="M1462.53 19.1973V22.5873H1464.95V24.4799H1460.64V19.1973H1462.53Z" fill="#FF4707"/>
<path d="M1466.32 19.1973V22.5873H1468.74V24.4799H1464.42V19.1973H1466.32Z" fill="#FF4707"/>
<path d="M1467.45 10.2518C1465.72 14.3691 1463.02 16.4429 1460.3 17.2269C1457.62 17.9959 1455 17.5031 1453.42 16.6077L1454.35 14.9592C1455.49 15.6045 1457.59 16.0369 1459.77 15.4084C1461.9 14.7947 1464.18 13.1481 1465.71 9.51758L1467.45 10.2518Z" fill="#FF4707"/>
<path d="M1473.71 5.2832V6.99972H1471.82V5.2832H1473.71Z" fill="#FF4707"/>
<path d="M541.97 35.9874C546.53 35.0708 550.992 34.9542 554.456 36.2405C556.204 36.8897 557.715 37.9033 558.837 39.3635C559.959 40.8245 560.649 42.6771 560.841 44.9352C561.033 47.1944 560.652 49.1253 559.765 50.7319C558.88 52.3364 557.527 53.5503 555.883 54.439C552.626 56.1992 548.142 56.7325 543.453 56.5317C538.738 56.3297 533.691 55.3799 529.215 54.0579C524.754 52.7401 520.784 51.0304 518.261 49.2695L517.358 48.6393L518.117 47.841C520.449 45.3874 524.149 42.8859 528.36 40.7769C532.582 38.6625 537.385 36.9089 541.97 35.9874ZM553.796 38.0151C550.814 36.9078 546.763 36.9547 542.343 37.843C537.947 38.7265 533.302 40.4183 529.207 42.4694C525.591 44.2803 522.455 46.3459 520.307 48.3392C522.615 49.7318 525.949 51.1194 529.751 52.2424C534.106 53.5287 538.999 54.4469 543.534 54.6411C548.096 54.8365 552.171 54.294 554.983 52.7745C556.372 52.0236 557.43 51.0461 558.108 49.8176C558.785 48.5911 559.12 47.0464 558.954 45.0962V45.0952C558.788 43.1387 558.203 41.6456 557.336 40.5158C556.467 39.3851 555.271 38.5627 553.796 38.0151Z" fill="#FF4707"/>
<path d="M565.534 39.6385C566.604 39.6156 567.72 39.8044 568.619 40.4488C569.497 41.0773 570.043 42.0482 570.21 43.3307L570.238 43.5917L570.239 43.5957C570.356 45.0083 569.984 46.1476 569.175 46.9658C568.397 47.7521 567.329 48.1257 566.271 48.2832C564.165 48.5965 561.659 48.1187 560.017 47.617L560.293 46.7117L560.57 45.8064C562.097 46.2731 564.29 46.665 565.993 46.4116C566.838 46.2857 567.451 46.0165 567.829 45.6344C568.175 45.2844 568.432 44.7295 568.352 43.7568C568.267 42.781 567.919 42.275 567.517 41.9873C567.079 41.6738 566.429 41.5128 565.574 41.5311C563.852 41.5681 561.755 42.3235 560.323 43.0446L559.471 41.3541C561.01 40.5785 563.404 39.6842 565.534 39.6385Z" fill="#FF4707"/>
<path d="M564.75 46.6387C565.729 47.074 566.695 47.7283 567.223 48.7303C567.777 49.7844 567.748 51.0275 567.117 52.3914L567.116 52.3954C566.551 53.6044 565.741 54.3937 564.723 54.7231C563.732 55.0435 562.712 54.873 561.814 54.5241C560.039 53.8348 558.355 52.2994 557.354 51.137L558.788 49.9017C559.702 50.9623 561.143 52.2326 562.499 52.7595C563.166 53.0187 563.713 53.0599 564.141 52.9216C564.54 52.7921 565 52.4529 565.402 51.5932C565.848 50.6266 565.763 50.0216 565.548 49.6126C565.305 49.151 564.785 48.7262 563.982 48.3692L564.75 46.6387Z" fill="#FF4707"/>
<path d="M560.077 34.201C560.904 33.7054 561.882 33.3649 562.914 33.5138C563.973 33.6668 564.905 34.3077 565.669 35.4043C566.549 36.6593 566.779 37.9032 566.383 39.0515C566.009 40.1376 565.135 40.9511 564.218 41.5422L563.193 39.9507C563.949 39.4635 564.418 38.9447 564.594 38.4353C564.748 37.9879 564.736 37.3715 564.119 36.4917L564.117 36.4887C563.572 35.7054 563.06 35.4475 562.643 35.3873C562.197 35.3231 561.665 35.4562 561.05 35.8245C559.8 36.5736 558.593 38.0685 557.866 39.2585L556.25 38.2722C557.042 36.9751 558.444 35.1797 560.077 34.201Z" fill="#FF4707"/>
<path d="M549.621 35.9766C550.401 37.3107 551.742 40.9777 551.421 45.8496L549.532 45.7255C549.828 41.2209 548.571 37.932 547.986 36.9329L549.621 35.9766Z" fill="#FF4707"/>
<path d="M545.13 36.3496C545.91 37.6838 547.25 41.3507 546.93 46.2226L545.041 46.0986C545.337 41.5939 544.079 38.305 543.495 37.3059L545.13 36.3496Z" fill="#FF4707"/>
<path d="M537.767 47.4805C538.097 49.7967 538.033 51.3303 537.785 52.48C537.542 53.6056 537.103 54.37 536.886 54.8757L535.146 54.1305C535.457 53.4037 535.744 52.9679 535.936 52.0799C536.122 51.2155 536.202 49.9202 535.893 47.7465L537.767 47.4805Z" fill="#FF4707"/>
<path d="M533.388 47.7012C533.718 50.0174 533.655 51.551 533.406 52.7007C533.163 53.8263 532.724 54.5907 532.507 55.0964L530.767 54.3512C531.078 53.6244 531.365 53.1886 531.557 52.3006C531.743 51.4362 531.823 50.1409 531.514 47.9673L533.388 47.7012Z" fill="#FF4707"/>
<path d="M553.381 12.4182C556.076 12.3456 557.772 13.2423 558.729 14.6698C559.47 15.7743 559.677 17.0749 559.728 18.1319L564.891 20.2025L559.657 22.8193C559.334 24.5401 558.363 26.814 556.384 28.7311C554.175 30.8698 550.769 32.5142 545.768 32.5143C535.593 32.5143 531.189 24.2764 530.236 20.5316L529.936 19.3513H547.407C547.338 18.1874 547.48 16.8134 548.064 15.5831C548.465 14.7378 549.08 13.9526 549.978 13.3734C550.875 12.7944 552.004 12.4551 553.381 12.4182ZM553.432 14.3107C552.344 14.3399 551.565 14.6021 551.004 14.9639C550.443 15.3257 550.046 15.821 549.774 16.3954C549.214 17.5749 549.198 19.0542 549.404 20.1175L549.624 21.2438H532.448C533.81 24.8547 537.785 30.6207 545.768 30.6207C550.32 30.6207 553.242 29.1398 555.067 27.3717C556.916 25.5807 557.696 23.4417 557.859 22.0781L557.92 21.5719L560.279 20.3916L557.852 19.4193V18.7791C557.852 17.7106 557.725 16.5709 557.157 15.7242C556.645 14.9616 555.645 14.2512 553.432 14.3107Z" fill="#FF4707"/>
<path d="M545.021 31.6113V35.0014H547.442V36.8939H543.128V31.6113H545.021Z" fill="#FF4707"/>
<path d="M548.784 31.6113V35.0014H551.206V36.8939H546.892V31.6113H548.784Z" fill="#FF4707"/>
<path d="M549.921 22.6678C548.19 26.7851 545.484 28.8589 542.762 29.6429C540.092 30.4119 537.469 29.9191 535.883 29.0237L536.813 27.3752C537.956 28.0206 540.055 28.4529 542.238 27.8244C544.369 27.2107 546.649 25.5641 548.176 21.9336L549.921 22.6678Z" fill="#FF4707"/>
<path d="M556.18 17.7012V19.4177H554.287V17.7012H556.18Z" fill="#FF4707"/>
<path d="M1112.28 39.6191C1114.69 39.663 1116.24 40.5345 1117.14 41.8728C1117.88 42.9773 1118.09 44.2779 1118.14 45.3349L1123.3 47.4055L1118.07 50.0223C1117.74 51.7431 1116.77 54.017 1114.79 55.9341C1112.58 58.0728 1109.18 59.7172 1104.18 59.7173C1094 59.7173 1089.6 51.4794 1088.64 47.7346L1088.34 46.5542H1105.82C1105.75 45.3904 1105.89 44.0164 1106.47 42.7861C1106.87 41.9408 1107.49 41.1556 1108.39 40.5764C1109.28 39.9974 1110.41 39.658 1111.79 39.6211L1112.28 39.6191ZM1111.84 41.5137C1110.75 41.5429 1109.97 41.8051 1109.41 42.1669C1108.85 42.5287 1108.46 43.024 1108.18 43.5984C1107.62 44.7779 1107.61 46.2572 1107.81 47.3205L1108.03 48.4468H1090.86C1092.22 52.0577 1096.19 57.8237 1104.18 57.8237C1108.73 57.8236 1111.65 56.3428 1113.48 54.5747C1115.33 52.7837 1116.1 50.6447 1116.27 49.2811L1116.33 48.7749L1118.69 47.5946L1116.26 46.6223V45.9821C1116.26 44.9136 1116.13 43.7739 1115.57 42.9271C1115.05 42.1645 1114.05 41.4542 1111.84 41.5137Z" fill="#FF4707"/>
<path d="M1108.33 49.8709C1106.6 53.9882 1103.89 56.062 1101.17 56.8461C1098.5 57.615 1095.88 57.1223 1094.29 56.2269L1095.22 54.5784C1096.37 55.2237 1098.46 55.656 1100.65 55.0275C1102.78 54.4139 1105.06 52.7673 1106.58 49.1367L1108.33 49.8709Z" fill="#FF4707"/>
<path d="M1114.59 44.9258V46.6423H1112.7V44.9258H1114.59Z" fill="#FF4707"/>
<path d="M1074.66 32.3789C1077.54 32.3789 1079.77 33.2998 1081.39 34.9537C1082.98 36.5848 1083.88 38.8399 1084.3 41.3636C1085.14 46.3941 1084.12 52.8255 1082.34 58.6709L1080.53 58.1207C1082.28 52.3887 1083.2 46.285 1082.43 41.6747C1082.05 39.3782 1081.26 37.5357 1080.03 36.2751C1078.82 35.0373 1077.1 34.2715 1074.66 34.2715C1072.19 34.2716 1070.42 35.0353 1069.17 36.2751C1067.89 37.5345 1067.06 39.3714 1066.63 41.6567C1065.77 46.2467 1066.63 52.3381 1068.41 58.0937L1066.6 58.6539C1064.78 52.7658 1063.83 46.3329 1064.77 41.3096C1065.24 38.7886 1066.2 36.5465 1067.84 34.9287C1069.49 33.2913 1071.76 32.379 1074.66 32.3789Z" fill="#FF4707"/>
<path d="M1074.13 23.3984C1075.49 23.3984 1076.55 23.8468 1077.27 24.6918C1077.95 25.5021 1078.22 26.5554 1078.29 27.5757C1078.42 29.606 1077.76 31.9494 1077.14 33.4635L1076.27 33.1054L1075.39 32.7463C1075.96 31.355 1076.5 29.318 1076.4 27.6947C1076.35 26.8884 1076.14 26.2964 1075.82 25.9182C1075.53 25.5747 1075.04 25.291 1074.13 25.291C1073.22 25.291 1072.73 25.5741 1072.44 25.9162C1072.12 26.2925 1071.91 26.882 1071.86 27.6867C1071.76 29.3072 1072.3 31.3445 1072.87 32.7493L1071.12 33.4615C1070.5 31.9389 1069.84 29.5955 1069.97 27.5677C1070.04 26.5485 1070.31 25.4966 1071 24.6878C1071.72 23.8448 1072.78 23.3984 1074.13 23.3984Z" fill="#FF4707"/>
<path d="M1078.76 26.6443C1079.82 26.1984 1081.01 26.3311 1082.26 27.0454L1082.26 27.0474C1083.37 27.6885 1084.06 28.5296 1084.3 29.5361C1084.52 30.5149 1084.28 31.4798 1083.87 32.308C1083.07 33.9425 1081.47 35.417 1080.3 36.2702L1079.19 34.7377C1080.26 33.9621 1081.57 32.7079 1082.17 31.4757C1082.47 30.8705 1082.54 30.3664 1082.45 29.9633C1082.36 29.5882 1082.09 29.1341 1081.32 28.6859C1080.45 28.192 1079.88 28.2253 1079.49 28.3898C1079.05 28.5765 1078.61 29.0237 1078.22 29.7472L1076.56 28.8469C1077.04 27.9418 1077.75 27.0683 1078.76 26.6443Z" fill="#FF4707"/>
<path d="M1066 27.0432C1067.28 26.3154 1068.49 26.1953 1069.56 26.6701C1070.57 27.119 1071.27 28.0217 1071.76 28.9428L1070.08 29.825C1069.69 29.0735 1069.24 28.6001 1068.79 28.3996C1068.4 28.2251 1067.83 28.182 1066.94 28.6867C1066.17 29.1341 1065.9 29.5877 1065.81 29.9621C1065.72 30.3652 1065.8 30.8693 1066.09 31.4745C1066.7 32.7067 1068.01 33.961 1069.08 34.7365L1067.96 36.269C1066.79 35.4158 1065.19 33.9412 1064.39 32.3068C1063.99 31.4786 1063.74 30.5137 1063.97 29.5349C1064.2 28.5284 1064.89 27.6873 1066 27.0462L1066 27.0432Z" fill="#FF4707"/>
<path d="M1065.27 42.2898C1066.59 41.6534 1070.2 40.6838 1074.8 41.3705L1074.52 43.2421C1070.27 42.6084 1067.05 43.5312 1066.09 43.9953L1065.27 42.2898Z" fill="#FF4707"/>
<path d="M1065.27 46.5828C1066.59 45.9464 1070.2 44.9767 1074.8 45.6635L1074.52 47.5351C1070.27 46.9014 1067.05 47.8242 1066.09 48.2883L1065.27 46.5828Z" fill="#FF4707"/>
<path d="M1075.22 54.436C1077.44 54.3109 1078.89 54.4942 1079.96 54.8231C1081 55.1428 1081.71 55.6265 1082.16 55.8624L1081.29 57.542C1080.6 57.1837 1080.23 56.8853 1079.4 56.6327C1078.61 56.3893 1077.4 56.2096 1075.33 56.3266L1075.22 54.436Z" fill="#FF4707"/>
<path d="M1135.63 41.4043C1137.8 41.4043 1139.56 42.0031 1140.92 43.1178C1142.27 44.2245 1143.14 45.7737 1143.66 47.5402C1144.69 51.0423 1144.38 55.6023 1143.42 60.049L1142.5 59.8489L1141.57 59.6498C1142.51 55.3142 1142.74 51.1239 1141.84 48.0723C1141.4 46.5622 1140.7 45.3832 1139.72 44.5813C1138.75 43.7874 1137.43 43.2969 1135.63 43.2969C1133.82 43.2969 1132.48 43.7793 1131.47 44.5663C1130.46 45.3595 1129.72 46.5225 1129.24 48.0073C1128.27 51.0079 1128.41 55.142 1129.31 59.4578L1127.46 59.8449C1126.53 55.4004 1126.32 50.8837 1127.44 47.4241C1128.01 45.6789 1128.93 44.1597 1130.3 43.0778C1131.69 41.9898 1133.46 41.4043 1135.63 41.4043Z" fill="#FF4707"/>
<path d="M1135.19 33.6758C1136.38 33.6758 1137.34 34.0702 1137.99 34.8301C1138.61 35.5562 1138.85 36.4934 1138.9 37.3849C1139.02 39.157 1138.44 41.193 1137.91 42.5045L1136.16 41.7952C1136.64 40.5976 1137.1 38.8692 1137.01 37.5049C1136.97 36.8283 1136.8 36.3537 1136.55 36.0605C1136.33 35.8014 1135.95 35.5684 1135.19 35.5684C1134.43 35.5684 1134.04 35.8012 1133.82 36.0605C1133.57 36.3537 1133.4 36.8283 1133.36 37.5049C1133.27 38.8692 1133.73 40.5976 1134.22 41.7952L1133.34 42.1494L1132.46 42.5045C1131.93 41.193 1131.36 39.1571 1131.47 37.3849C1131.52 36.4934 1131.76 35.5562 1132.38 34.8301C1133.03 34.0701 1133.99 33.6758 1135.19 33.6758Z" fill="#FF4707"/>
<path d="M1139.1 36.4766C1139.99 36.0964 1140.99 36.1764 1142.01 36.7057L1142.22 36.8177L1142.22 36.8197C1143.2 37.3833 1143.82 38.1319 1144.03 39.0404C1144.24 39.9214 1144.01 40.7815 1143.66 41.5082C1142.96 42.9395 1141.56 44.222 1140.54 44.9642L1139.43 43.4327C1140.35 42.7663 1141.45 41.7042 1141.96 40.6759C1142.2 40.1727 1142.26 39.7737 1142.19 39.4695C1142.12 39.1934 1141.92 38.8315 1141.28 38.4602L1141.02 38.3282C1140.46 38.0658 1140.09 38.1109 1139.84 38.2182C1139.5 38.3634 1139.14 38.7195 1138.82 39.3215L1137.15 38.4222C1137.57 37.6377 1138.2 36.8598 1139.1 36.4766Z" fill="#FF4707"/>
<path d="M1128.13 36.8216C1129.25 36.1778 1130.33 36.0656 1131.3 36.4915C1132.21 36.8923 1132.83 37.694 1133.25 38.5001L1131.58 39.3784C1131.25 38.7541 1130.88 38.3781 1130.53 38.223C1130.24 38.0932 1129.79 38.0474 1129.08 38.4601C1128.44 38.832 1128.23 39.1948 1128.17 39.4714C1128.1 39.7755 1128.15 40.1738 1128.4 40.6768C1128.9 41.7052 1130.01 42.7681 1130.92 43.4346L1129.81 44.9651C1128.79 44.223 1127.4 42.9412 1126.7 41.51C1126.34 40.7834 1126.12 39.9232 1126.32 39.0423C1126.53 38.1339 1127.16 37.3852 1128.13 36.8216Z" fill="#FF4707"/>
<path d="M1127.49 49.9068C1128.66 49.3333 1131.78 48.4962 1135.75 49.0955L1135.46 50.9671C1131.86 50.422 1129.13 51.2122 1128.32 51.6073L1127.49 49.9068Z" fill="#FF4707"/>
<path d="M1127.49 53.5826C1128.66 53.009 1131.78 52.172 1135.75 52.7713L1135.46 54.6429C1131.86 54.0978 1129.13 54.888 1128.32 55.2831L1127.49 53.5826Z" fill="#FF4707"/>
<path d="M1151.92 58.0645V60.2651H1055.75V58.0645H1151.92Z" fill="#FF4707"/>
<path d="M1151.92 57.8242V59.7168H1055.75V57.8242H1151.92Z" fill="#FF4707"/>
<path d="M1111.86 33.3906C1112.94 33.3906 1113.81 33.7477 1114.41 34.4479C1114.98 35.1141 1115.19 35.968 1115.24 36.7657C1115.34 38.35 1114.83 40.1591 1114.36 41.314L1112.61 40.6108C1113.02 39.5647 1113.42 38.0607 1113.35 36.8827C1113.32 36.2993 1113.17 35.9094 1112.97 35.6773C1112.8 35.4794 1112.5 35.2832 1111.86 35.2832C1111.21 35.2832 1110.91 35.4789 1110.73 35.6783C1110.53 35.9113 1110.39 36.3023 1110.35 36.8847C1110.28 38.0608 1110.68 39.5626 1111.1 40.6028L1109.35 41.321C1108.88 40.1602 1108.36 38.3496 1108.46 36.7637C1108.51 35.9651 1108.73 35.1122 1109.3 34.4469C1109.9 33.7481 1110.77 33.3906 1111.86 33.3906Z" fill="#FF4707"/>
<path d="M1115.25 35.8805C1116.13 35.5086 1117.11 35.6297 1118.1 36.2046L1118.1 36.2056C1118.97 36.7148 1119.55 37.3964 1119.74 38.2332C1119.93 39.0424 1119.72 39.8266 1119.4 40.4799C1118.78 41.7646 1117.54 42.9086 1116.65 43.5719L1115.52 42.0504C1116.32 41.459 1117.27 40.5341 1117.7 39.6507C1117.91 39.2204 1117.95 38.8961 1117.9 38.6614C1117.85 38.4542 1117.69 38.1574 1117.15 37.8411L1117.15 37.8401C1116.55 37.4908 1116.2 37.5358 1115.98 37.6261C1115.71 37.7386 1115.41 38.0263 1115.13 38.5483L1113.47 37.6541C1113.85 36.9438 1114.42 36.2303 1115.25 35.8805Z" fill="#FF4707"/>
<path d="M1105.57 36.2054C1106.58 35.6162 1107.58 35.5082 1108.48 35.9063C1109.31 36.2778 1109.88 37.0143 1110.25 37.7278L1108.58 38.6091C1108.29 38.0681 1107.98 37.7586 1107.71 37.6348C1107.49 37.538 1107.14 37.4854 1106.52 37.8419C1105.98 38.1581 1105.82 38.4549 1105.77 38.6621C1105.72 38.897 1105.76 39.2218 1105.97 39.6524C1106.4 40.5358 1107.35 41.4608 1108.15 42.0522L1107.02 43.5736C1106.13 42.9104 1104.89 41.7662 1104.26 40.4817C1103.95 39.8284 1103.74 39.0441 1103.93 38.235C1104.12 37.3981 1104.69 36.7145 1105.57 36.2054Z" fill="#FF4707"/>
<path d="M1075.08 12.1504V18.6214H1073.19V12.1504H1075.08Z" fill="#FF4707"/>
<path d="M1070.19 20.5843L1068.74 21.8106L1064.85 17.2322L1066.29 16.0059L1070.19 20.5843Z" fill="#FF4707"/>
<path d="M1083.41 17.2322L1079.52 21.8106L1078.08 20.5843L1081.97 16.0059L1083.41 17.2322Z" fill="#FF4707"/>
<path d="M1136.05 21.6582V28.1292H1134.16V21.6582H1136.05Z" fill="#FF4707"/>
<path d="M1131.16 30.1135L1129.71 31.3399L1125.82 26.7615L1127.26 25.5352L1131.16 30.1135Z" fill="#FF4707"/>
<path d="M1144.38 26.7615L1140.49 31.3399L1139.05 30.1135L1142.94 25.5352L1144.38 26.7615Z" fill="#FF4707"/>
<path d="M1116.24 15.1652C1116.24 10.4168 1111.32 6.22851 1104.81 6.22851C1098.3 6.2287 1093.39 10.4169 1093.39 15.1652C1093.39 19.2332 1096.96 22.867 1102.1 23.8499L1102.6 23.9369L1103.11 24.0159L1103.32 24.4881L1104.48 27.0909L1105.72 24.5251L1105.95 24.0569L1106.47 23.9979C1112.16 23.3492 1116.24 19.4948 1116.24 15.1652ZM1118.13 15.1652C1118.13 20.628 1113.25 24.9158 1107.2 25.8085L1104.4 31.5882L1101.8 25.7184C1096.05 24.6338 1091.5 20.4497 1091.5 15.1652C1091.5 8.9963 1097.68 4.33613 1104.81 4.33594C1111.95 4.33594 1118.13 8.99618 1118.13 15.1652Z" fill="#FF4707"/>
<path d="M1106.33 17.2561H1103.28V16.2435H1104.29V15.231H1105.3V14.2185H1106.31V12.1715H1103.25V14.2185H1101.21V11.159H1102.22V10.1465H1107.33V11.159H1108.34V15.253H1107.33V16.2656H1106.31V17.2781L1106.33 17.2561ZM1106.33 18.2906V20.3376H1103.28V18.2906H1106.33Z" fill="#FF4707"/>
<path d="M1106.33 20.3376H1103.27V18.291H1106.33V20.3376ZM1106.33 17.2556L1106.31 17.2777V17.2556H1106.33ZM1107.32 11.1588H1108.34V15.253H1107.32V16.2653H1106.31V17.2556H1103.27V16.2433H1104.29V15.231H1105.3V14.2187H1106.31V12.1711H1103.25V14.2187H1101.21V11.1588H1102.22V10.1465H1107.32V11.1588Z" fill="#FF4707"/>
<path d="M23.9383 11.3125C26.3489 11.3564 27.8959 12.2278 28.7938 13.5662C29.5345 14.6706 29.741 15.9712 29.7921 17.0282L34.9546 19.0989L29.721 21.7157C29.3987 23.4365 28.4272 25.7104 26.448 27.6275C24.2399 29.7661 20.8333 31.4106 15.8328 31.4106C5.657 31.4106 1.25385 23.1727 0.300091 19.428L0 18.2476H17.4713C17.402 17.0838 17.5444 15.7097 18.1285 14.4795C18.5299 13.6341 19.1442 12.8489 20.0421 12.2698C20.9398 11.6908 22.0683 11.3514 23.4451 11.3145L23.9383 11.3125ZM23.4961 13.2071C22.4081 13.2362 21.6295 13.4985 21.0684 13.8603C20.5074 14.2221 20.1107 14.7174 19.838 15.2917C19.2781 16.4713 19.2622 17.9506 19.4689 19.0138L19.688 20.1402H2.51276C3.87449 23.7511 7.84985 29.517 15.8328 29.517C20.3846 29.517 23.3062 28.0361 25.1316 26.268C26.9807 24.477 27.7602 22.338 27.9235 20.9744L27.9845 20.4683L30.3432 19.2879L27.9165 18.3156V17.6754C27.9165 16.607 27.7893 15.4672 27.2213 14.6205C26.7097 13.8579 25.7097 13.1475 23.4961 13.2071Z" fill="#FF4707"/>
<path d="M15.0635 30.5078V33.8978H17.4852V35.7904H13.1709V30.5078H15.0635Z" fill="#FF4707"/>
<path d="M18.8262 30.5078V33.8978H21.2479V35.7904H16.9336V30.5078H18.8262Z" fill="#FF4707"/>
<path d="M19.9621 21.5663C18.2309 25.6835 15.5254 27.7573 12.8029 28.5414C10.1326 29.3104 7.51 28.8176 5.92383 27.9222L6.85411 26.2737C7.99722 26.919 10.0959 27.3513 12.2788 26.7228C14.4096 26.1092 16.6901 24.4626 18.2166 20.832L19.9621 21.5663Z" fill="#FF4707"/>
<path d="M26.2451 16.6191V18.3357H24.3525V16.6191H26.2451Z" fill="#FF4707"/>
<path d="M31.1893 30.0449L31.1893 56.677L27.2461 56.677L27.2461 30.0449L31.1893 30.0449Z" fill="#FF4707"/>
<path d="M35.8926 44.8221H29.7467V40.8789H35.8926V44.8221Z" fill="#FF4707"/>
<path d="M19.5799 47.9724C19.5799 45.9938 19.5736 45.2337 19.4779 44.6293C18.9172 41.0905 16.1416 38.315 12.6028 37.7543C11.9985 37.6585 11.2383 37.6522 9.25977 37.6522V33.709C11.0874 33.709 12.2309 33.7026 13.219 33.8591C18.4456 34.6869 22.5452 38.7865 23.3731 44.0132C23.5295 45.0012 23.5231 46.1447 23.5231 47.9724V52.0696H19.5799V47.9724Z" fill="#FF4707"/>
<path d="M1201.27 11.3125C1203.68 11.3564 1205.23 12.2278 1206.13 13.5662C1206.87 14.6706 1207.07 15.9712 1207.13 17.0282L1212.29 19.0989L1207.06 21.7157C1206.73 23.4365 1205.76 25.7104 1203.78 27.6275C1201.57 29.7661 1198.17 31.4106 1193.17 31.4106C1182.99 31.4106 1178.59 23.1727 1177.63 19.428L1177.33 18.2476H1194.81C1194.74 17.0838 1194.88 15.7097 1195.46 14.4795C1195.86 13.6341 1196.48 12.8489 1197.38 12.2698C1198.27 11.6908 1199.4 11.3514 1200.78 11.3145L1201.27 11.3125ZM1200.83 13.2071C1199.74 13.2362 1198.96 13.4985 1198.4 13.8603C1197.84 14.2221 1197.44 14.7174 1197.17 15.2917C1196.61 16.4713 1196.6 17.9506 1196.8 19.0138L1197.02 20.1402H1179.85C1181.21 23.7511 1185.18 29.517 1193.17 29.517C1197.72 29.517 1200.64 28.0361 1202.47 26.268C1204.31 24.477 1205.09 22.338 1205.26 20.9744L1205.32 20.4683L1207.68 19.2879L1205.25 18.3156V17.6754C1205.25 16.607 1205.12 15.4672 1204.56 14.6205C1204.04 13.8579 1203.04 13.1475 1200.83 13.2071Z" fill="#FF4707"/>
<path d="M1192.4 30.5078V33.8978H1194.82V35.7904H1190.5V30.5078H1192.4Z" fill="#FF4707"/>
<path d="M1196.16 30.5078V33.8978H1198.58V35.7904H1194.27V30.5078H1196.16Z" fill="#FF4707"/>
<path d="M1197.3 21.5663C1195.56 25.6835 1192.86 27.7573 1190.14 28.5414C1187.47 29.3104 1184.84 28.8176 1183.26 27.9222L1184.19 26.2737C1185.33 26.919 1187.43 27.3513 1189.61 26.7228C1191.74 26.1092 1194.02 24.4626 1195.55 20.832L1197.3 21.5663Z" fill="#FF4707"/>
<path d="M1203.58 16.6191V18.3357H1201.69V16.6191H1203.58Z" fill="#FF4707"/>
<path d="M1208.52 30.0449L1208.52 56.677L1204.58 56.677L1204.58 30.0449L1208.52 30.0449Z" fill="#FF4707"/>
<path d="M1213.23 44.8221H1207.08V40.8789H1213.23V44.8221Z" fill="#FF4707"/>
<path d="M1196.91 47.9724C1196.91 45.9938 1196.91 45.2337 1196.81 44.6293C1196.25 41.0905 1193.48 38.315 1189.94 37.7543C1189.33 37.6585 1188.57 37.6522 1186.59 37.6522V33.709C1188.42 33.709 1189.56 33.7026 1190.55 33.8591C1195.78 34.6869 1199.88 38.7865 1200.71 44.0132C1200.86 45.0012 1200.86 46.1447 1200.86 47.9724V52.0696H1196.91V47.9724Z" fill="#FF4707"/>
<path d="M824.055 13.4258C826.466 13.4696 828.013 14.3411 828.911 15.6795C829.652 16.7839 829.858 18.0845 829.909 19.1415L835.072 21.2121L829.838 23.8289C829.516 25.5497 828.544 27.8236 826.565 29.7407C824.357 31.8794 820.951 33.5239 815.95 33.5239C805.774 33.5239 801.371 25.286 800.417 21.5412L800.117 20.3609H817.588C817.519 19.1971 817.662 17.823 818.246 16.5927C818.647 15.7474 819.261 14.9622 820.159 14.3831C821.057 13.8041 822.185 13.4647 823.562 13.4278L824.055 13.4258ZM823.613 15.3204C822.525 15.3495 821.747 15.6118 821.186 15.9736C820.625 16.3354 820.228 16.8307 819.955 17.405C819.395 18.5846 819.379 20.0638 819.586 21.1271L819.805 22.2535H802.63C803.992 25.8643 807.967 31.6303 815.95 31.6303C820.502 31.6303 823.423 30.1494 825.249 28.3813C827.098 26.5903 827.877 24.4513 828.041 23.0877L828.102 22.5816L830.46 21.4012L828.034 20.4289V19.7887C828.034 18.7202 827.906 17.5805 827.338 16.7338C826.827 15.9712 825.827 15.2608 823.613 15.3204Z" fill="#FF4707"/>
<path d="M815.179 32.6191V36.0092H817.6V37.9017H813.286V32.6191H815.179Z" fill="#FF4707"/>
<path d="M818.966 32.6211V36.0111H821.388V37.9037H817.073V32.6211H818.966Z" fill="#FF4707"/>
<path d="M820.103 23.6756C818.372 27.7929 815.666 29.8667 812.944 30.6507C810.273 31.4197 807.651 30.927 806.064 30.0316L806.995 28.3831C808.138 29.0284 810.236 29.4607 812.419 28.8322C814.55 28.2185 816.831 26.5719 818.357 22.9414L820.103 23.6756Z" fill="#FF4707"/>
<path d="M826.362 18.7324V20.4489H824.47V18.7324H826.362Z" fill="#FF4707"/>
<path d="M835.723 30.7461L835.723 57.3782L831.78 57.3782L831.78 30.7461L835.723 30.7461Z" fill="#FF4707"/>
<path d="M840.427 45.5252H834.281V41.582H840.427V45.5252Z" fill="#FF4707"/>
<path d="M823.62 49.1833C823.62 47.2473 823.618 45.894 823.546 44.8339C823.475 43.7916 823.342 43.1769 823.146 42.7043C822.514 41.1799 821.303 39.9688 819.779 39.3373C819.306 39.1415 818.692 39.0083 817.649 38.9371C816.589 38.8648 815.236 38.8631 813.3 38.8631V34.9199C815.182 34.9199 816.692 34.9184 817.917 35.0019C819.16 35.0868 820.254 35.2653 821.287 35.6932C823.778 36.725 825.758 38.7048 826.79 41.1958C827.218 42.229 827.396 43.3228 827.481 44.5659C827.565 45.7912 827.563 47.3014 827.563 49.1833V53.2805H823.62V49.1833Z" fill="#FF4707"/>
<path d="M817.397 42.0898C823.012 42.0898 827.563 46.6412 827.563 52.2559H823.62C823.62 48.8192 820.834 46.033 817.397 46.033H814.324V42.0898H817.397Z" fill="#FF4707"/>
<path d="M85.2449 11.6641C87.6555 11.7079 89.2026 12.5794 90.1004 13.9177C90.8411 15.0222 91.0476 16.3228 91.0987 17.3798L96.2613 19.4504L91.0277 22.0672C90.7053 23.788 89.7339 26.0619 87.7547 27.979C85.5466 30.1177 82.14 31.7622 77.1395 31.7622C66.9636 31.7622 62.5605 23.5243 61.6067 19.7795L61.3066 18.5992H78.778C78.7086 17.4353 78.851 16.0613 79.4352 14.831C79.8365 13.9857 80.4508 13.2005 81.3487 12.6214C82.2465 12.0424 83.375 11.703 84.7518 11.6661L85.2449 11.6641ZM84.8028 13.5586C83.7147 13.5878 82.9362 13.85 82.375 14.2118C81.8141 14.5736 81.4174 15.0689 81.1447 15.6433C80.5847 16.8229 80.5688 18.3021 80.7756 19.3654L80.9946 20.4917H63.8194C65.1811 24.1026 69.1565 29.8686 77.1395 29.8686C81.6913 29.8686 84.6129 28.3877 86.4383 26.6196C88.2873 24.8286 89.0669 22.6896 89.2301 21.326L89.2911 20.8198L91.6499 19.6395L89.2231 18.6672V18.027C89.2231 16.9585 89.0959 15.8188 88.5279 14.9721C88.0163 14.2095 87.0163 13.4991 84.8028 13.5586Z" fill="#FF4707"/>
<path d="M76.3682 30.8574V34.2475H78.7899V36.14H74.4756V30.8574H76.3682Z" fill="#FF4707"/>
<path d="M80.1533 30.8594V34.2494H82.5751V36.142H78.2607V30.8594H80.1533Z" fill="#FF4707"/>
<path d="M81.2912 21.9159C79.56 26.0331 76.8545 28.1069 74.132 28.891C71.4617 29.66 68.8391 29.1672 67.2529 28.2718L68.1832 26.6233C69.3263 27.2686 71.425 27.7009 73.6079 27.0724C75.7387 26.4588 78.0192 24.8122 79.5457 21.1816L81.2912 21.9159Z" fill="#FF4707"/>
<path d="M87.5488 16.9473V18.6638H85.6562V16.9473H87.5488Z" fill="#FF4707"/>
<path d="M80.2129 41.3439C80.2129 45.912 83.9163 49.6154 88.4844 49.6154V53.5586C81.7383 53.5586 76.2697 48.09 76.2697 41.3439V35.198H80.2129V41.3439Z" fill="#FF4707"/>
<path d="M96.0731 31.6094L96.0731 58.2415L92.1299 58.2415L92.1299 31.6094L96.0731 31.6094Z" fill="#FF4707"/>
<path d="M100.776 46.3885H94.6305V42.4453H100.776V46.3885Z" fill="#FF4707"/>
<path d="M1262.58 11.6641C1264.99 11.7079 1266.54 12.5794 1267.43 13.9177C1268.18 15.0222 1268.38 16.3228 1268.43 17.3798L1273.6 19.4504L1268.36 22.0672C1268.04 23.788 1267.07 26.0619 1265.09 27.979C1262.88 30.1177 1259.47 31.7622 1254.47 31.7622C1244.3 31.7622 1239.89 23.5243 1238.94 19.7795L1238.64 18.5992H1256.11C1256.04 17.4353 1256.19 16.0613 1256.77 14.831C1257.17 13.9857 1257.78 13.2005 1258.68 12.6214C1259.58 12.0424 1260.71 11.703 1262.09 11.6661L1262.58 11.6641ZM1262.14 13.5586C1261.05 13.5878 1260.27 13.85 1259.71 14.2118C1259.15 14.5736 1258.75 15.0689 1258.48 15.6433C1257.92 16.8229 1257.9 18.3021 1258.11 19.3654L1258.33 20.4917H1241.15C1242.52 24.1026 1246.49 29.8686 1254.47 29.8686C1259.03 29.8686 1261.95 28.3877 1263.77 26.6196C1265.62 24.8286 1266.4 22.6896 1266.56 21.326L1266.63 20.8198L1268.98 19.6395L1266.56 18.6672V18.027C1266.56 16.9585 1266.43 15.8188 1265.86 14.9721C1265.35 14.2095 1264.35 13.4991 1262.14 13.5586Z" fill="#FF4707"/>
<path d="M1253.7 30.8574V34.2475H1256.12V36.14H1251.81V30.8574H1253.7Z" fill="#FF4707"/>
<path d="M1257.49 30.8594V34.2494H1259.91V36.142H1255.59V30.8594H1257.49Z" fill="#FF4707"/>
<path d="M1258.62 21.9159C1256.89 26.0331 1254.19 28.1069 1251.47 28.891C1248.79 29.66 1246.17 29.1672 1244.59 28.2718L1245.52 26.6233C1246.66 27.2686 1248.76 27.7009 1250.94 27.0724C1253.07 26.4588 1255.35 24.8122 1256.88 21.1816L1258.62 21.9159Z" fill="#FF4707"/>
<path d="M1264.88 16.9473V18.6638H1262.99V16.9473H1264.88Z" fill="#FF4707"/>
<path d="M1257.55 41.3439C1257.55 45.912 1261.25 49.6154 1265.82 49.6154V53.5586C1259.07 53.5586 1253.6 48.09 1253.6 41.3439V35.198H1257.55V41.3439Z" fill="#FF4707"/>
<path d="M1273.41 31.6094L1273.41 58.2415L1269.46 58.2415L1269.46 31.6094L1273.41 31.6094Z" fill="#FF4707"/>
<path d="M1278.11 46.3885H1271.96V42.4453H1278.11V46.3885Z" fill="#FF4707"/>
<path d="M150.129 13.3828C152.539 13.4267 154.086 14.2982 154.984 15.6365C155.725 16.7409 155.931 18.0415 155.982 19.0986L161.145 21.1692L155.911 23.786C155.589 25.5068 154.618 27.7807 152.638 29.6978C150.43 31.8364 147.024 33.4809 142.023 33.4809C131.847 33.4809 127.444 25.2431 126.491 21.4983L126.19 20.3179H143.662C143.592 19.1541 143.735 17.78 144.319 16.5498C144.72 15.7045 145.335 14.9192 146.233 14.3401C147.13 13.7611 148.259 13.4217 149.636 13.3848L150.129 13.3828ZM149.687 15.2774C148.598 15.3065 147.82 15.5688 147.259 15.9306C146.698 16.2924 146.301 16.7877 146.028 17.362C145.469 18.5416 145.453 20.0209 145.659 21.0842L145.878 22.2105H128.703C130.065 25.8214 134.04 31.5873 142.023 31.5873C146.575 31.5873 149.497 30.1064 151.322 28.3384C153.171 26.5473 153.951 24.4083 154.114 23.0448L154.175 22.5386L156.534 21.3582L154.107 20.3859V19.7457C154.107 18.6773 153.98 17.5375 153.412 16.6908C152.9 15.9282 151.9 15.2179 149.687 15.2774Z" fill="#FF4707"/>
<path d="M141.252 32.5762V35.9662H143.674V37.8588H139.359V32.5762H141.252Z" fill="#FF4707"/>
<path d="M145.037 32.5762V35.9662H147.459V37.8588H143.145V32.5762H145.037Z" fill="#FF4707"/>
<path d="M146.177 23.6346C144.446 27.7519 141.74 29.8257 139.018 30.6097C136.347 31.3787 133.725 30.8859 132.139 29.9905L133.069 28.342C134.212 28.9874 136.311 29.4197 138.494 28.7912C140.624 28.1775 142.905 26.5309 144.431 22.9004L146.177 23.6346Z" fill="#FF4707"/>
<path d="M152.433 18.668V20.3845H150.54V18.668H152.433Z" fill="#FF4707"/>
<path d="M136.458 39.665C140.124 35.4126 146.543 34.9368 150.796 38.6024L152.289 39.8897L149.715 42.8764L148.221 41.5891C145.619 39.3456 141.688 39.6368 139.445 42.2396C137.201 44.8423 137.493 48.7724 140.095 51.016L141.589 52.3033L139.014 55.29L137.521 54.0027C133.268 50.3371 132.793 43.9174 136.458 39.665Z" fill="#FF4707"/>
<path d="M161.329 43.5238L143.941 63.6959L140.954 61.1213L158.343 40.9492L161.329 43.5238Z" fill="#FF4707"/>
<path d="M155.241 57.7875L150.586 53.7748L153.16 50.7881L157.815 54.8008L155.241 57.7875Z" fill="#FF4707"/>
<path d="M1327.46 13.3828C1329.87 13.4267 1331.42 14.2982 1332.32 15.6365C1333.06 16.7409 1333.27 18.0415 1333.32 19.0986L1338.48 21.1692L1333.25 23.786C1332.92 25.5068 1331.95 27.7807 1329.97 29.6978C1327.76 31.8364 1324.36 33.4809 1319.36 33.4809C1309.18 33.4809 1304.78 25.2431 1303.82 21.4983L1303.52 20.3179H1321C1320.93 19.1541 1321.07 17.78 1321.65 16.5498C1322.05 15.7045 1322.67 14.9192 1323.57 14.3401C1324.46 13.7611 1325.59 13.4217 1326.97 13.3848L1327.46 13.3828ZM1327.02 15.2774C1325.93 15.3065 1325.15 15.5688 1324.59 15.9306C1324.03 16.2924 1323.64 16.7877 1323.36 17.362C1322.8 18.5416 1322.79 20.0209 1322.99 21.0842L1323.21 22.2105H1306.04C1307.4 25.8214 1311.37 31.5873 1319.36 31.5873C1323.91 31.5873 1326.83 30.1064 1328.66 28.3384C1330.51 26.5473 1331.28 24.4083 1331.45 23.0448L1331.51 22.5386L1333.87 21.3582L1331.44 20.3859V19.7457C1331.44 18.6773 1331.31 17.5375 1330.75 16.6908C1330.23 15.9282 1329.23 15.2179 1327.02 15.2774Z" fill="#FF4707"/>
<path d="M1318.59 32.5762V35.9662H1321.01V37.8588H1316.69V32.5762H1318.59Z" fill="#FF4707"/>
<path d="M1322.37 32.5762V35.9662H1324.79V37.8588H1320.48V32.5762H1322.37Z" fill="#FF4707"/>
<path d="M1323.51 23.6346C1321.78 27.7519 1319.07 29.8257 1316.35 30.6097C1313.68 31.3787 1311.06 30.8859 1309.47 29.9905L1310.4 28.342C1311.55 28.9874 1313.64 29.4197 1315.83 28.7912C1317.96 28.1775 1320.24 26.5309 1321.76 22.9004L1323.51 23.6346Z" fill="#FF4707"/>
<path d="M1329.77 18.668V20.3845H1327.87V18.668H1329.77Z" fill="#FF4707"/>
<path d="M1313.79 39.665C1317.46 35.4126 1323.88 34.9368 1328.13 38.6024L1329.62 39.8897L1327.05 42.8764L1325.56 41.5891C1322.95 39.3456 1319.02 39.6368 1316.78 42.2396C1314.54 44.8423 1314.83 48.7724 1317.43 51.016L1318.92 52.3033L1316.35 55.29L1314.85 54.0027C1310.6 50.3371 1310.13 43.9174 1313.79 39.665Z" fill="#FF4707"/>
<path d="M1338.66 43.5238L1321.27 63.6959L1318.29 61.1213L1335.68 40.9492L1338.66 43.5238Z" fill="#FF4707"/>
<path d="M1332.57 57.7875L1327.92 53.7748L1330.49 50.7881L1335.15 54.8008L1332.57 57.7875Z" fill="#FF4707"/>
<path d="M355.851 14.6602C358.262 14.704 359.809 15.5755 360.707 16.9138C361.448 18.0183 361.654 19.3189 361.705 20.3759L366.868 22.4465L361.634 25.0633C361.312 26.7841 360.34 29.058 358.361 30.9751C356.153 33.1138 352.746 34.7582 347.746 34.7583C337.57 34.7583 333.167 26.5204 332.213 22.7756L331.913 21.5953H349.384C349.315 20.4314 349.457 19.0574 350.042 17.8271C350.443 16.9818 351.057 16.1966 351.955 15.6174C352.853 15.0385 353.981 14.699 355.358 14.6622L355.851 14.6602ZM355.409 16.5547C354.321 16.5839 353.543 16.8461 352.981 17.2079C352.421 17.5697 352.024 18.065 351.751 18.6394C351.191 19.8189 351.175 21.2982 351.382 22.3615L351.601 23.4878H334.426C335.788 27.0987 339.763 32.8647 347.746 32.8647C352.298 32.8647 355.219 31.3838 357.045 29.6157C358.894 27.8247 359.673 25.6857 359.837 24.3221L359.898 23.8159L362.256 22.6356L359.83 21.6633V21.0231C359.83 19.9546 359.702 18.8149 359.134 17.9682C358.623 17.2056 357.623 16.4952 355.409 16.5547Z" fill="#FF4707"/>
<path d="M346.977 33.8555V37.2455H349.398V39.1381H345.084V33.8555H346.977Z" fill="#FF4707"/>
<path d="M350.762 33.8555V37.2455H353.183V39.1381H348.869V33.8555H350.762Z" fill="#FF4707"/>
<path d="M351.899 24.912C350.167 29.0292 347.462 31.103 344.739 31.8871C342.069 32.6561 339.447 32.1633 337.86 31.2679L338.791 29.6194C339.934 30.2647 342.032 30.697 344.215 30.0685C346.346 29.4549 348.627 27.8083 350.153 24.1777L351.899 24.912Z" fill="#FF4707"/>
<path d="M358.157 19.9473V21.6638H356.265V19.9473H358.157Z" fill="#FF4707"/>
<path d="M363.942 34.748L363.942 61.3801L359.999 61.3801L359.999 34.748L363.942 34.748Z" fill="#FF4707"/>
<path d="M368.646 49.5252H362.5V45.582H368.646V49.5252Z" fill="#FF4707"/>
<path d="M351.821 46.4241C351.821 45.2443 351.82 44.4776 351.772 43.8933C351.726 43.332 351.647 43.114 351.589 43C351.386 42.6004 351.061 42.2755 350.661 42.0718C350.547 42.0137 350.329 41.9346 349.768 41.8887C349.183 41.841 348.417 41.8397 347.237 41.8397H346.546V48.6768C346.546 49.8565 346.547 50.6233 346.595 51.2075C346.641 51.7688 346.72 51.9869 346.778 52.1008C346.982 52.5004 347.306 52.8254 347.706 53.0291C347.82 53.0871 348.038 53.1663 348.599 53.2121C349.184 53.2599 349.95 53.2612 351.13 53.2612H351.821V46.4241ZM355.765 57.2044H351.13C350.015 57.2044 349.06 57.2062 348.278 57.1423C347.473 57.0766 346.679 56.9315 345.917 56.5432C344.775 55.9613 343.846 55.0323 343.264 53.8904C342.875 53.1279 342.73 52.3337 342.665 51.5286C342.601 50.7465 342.603 49.7915 342.603 48.6768V37.8965H347.237C348.352 37.8965 349.307 37.8946 350.089 37.9585C350.894 38.0243 351.688 38.1693 352.451 38.5577C353.593 39.1396 354.521 40.0685 355.103 41.2105C355.492 41.9729 355.637 42.7672 355.703 43.5722C355.766 44.3543 355.765 45.3094 355.765 46.4241V57.2044Z" fill="#FF4707"/>
<path d="M1533.18 14.6602C1535.59 14.704 1537.14 15.5755 1538.04 16.9138C1538.78 18.0183 1538.99 19.3189 1539.04 20.3759L1544.2 22.4465L1538.97 25.0633C1538.64 26.7841 1537.67 29.058 1535.69 30.9751C1533.49 33.1138 1530.08 34.7582 1525.08 34.7583C1514.9 34.7583 1510.5 26.5204 1509.55 22.7756L1509.25 21.5953H1526.72C1526.65 20.4314 1526.79 19.0574 1527.37 17.8271C1527.78 16.9818 1528.39 16.1966 1529.29 15.6174C1530.18 15.0385 1531.31 14.699 1532.69 14.6622L1533.18 14.6602ZM1532.74 16.5547C1531.65 16.5839 1530.87 16.8461 1530.31 17.2079C1529.75 17.5697 1529.36 18.065 1529.08 18.6394C1528.52 19.8189 1528.51 21.2982 1528.71 22.3615L1528.93 23.4878H1511.76C1513.12 27.0987 1517.09 32.8647 1525.08 32.8647C1529.63 32.8647 1532.55 31.3838 1534.38 29.6157C1536.23 27.8247 1537.01 25.6857 1537.17 24.3221L1537.23 23.8159L1539.59 22.6356L1537.16 21.6633V21.0231C1537.16 19.9546 1537.03 18.8149 1536.47 17.9682C1535.95 17.2056 1534.95 16.4952 1532.74 16.5547Z" fill="#FF4707"/>
<path d="M1524.31 33.8555V37.2455H1526.73V39.1381H1522.42V33.8555H1524.31Z" fill="#FF4707"/>
<path d="M1528.09 33.8555V37.2455H1530.51V39.1381H1526.2V33.8555H1528.09Z" fill="#FF4707"/>
<path d="M1529.23 24.912C1527.5 29.0292 1524.79 31.103 1522.07 31.8871C1519.4 32.6561 1516.78 32.1633 1515.19 31.2679L1516.12 29.6194C1517.27 30.2647 1519.36 30.697 1521.55 30.0685C1523.68 29.4549 1525.96 27.8083 1527.49 24.1777L1529.23 24.912Z" fill="#FF4707"/>
<path d="M1535.49 19.9473V21.6638H1533.6V19.9473H1535.49Z" fill="#FF4707"/>
<path d="M1541.27 34.748L1541.27 61.3801L1537.33 61.3801L1537.33 34.748L1541.27 34.748Z" fill="#FF4707"/>
<path d="M1545.98 49.5252H1539.83V45.582H1545.98V49.5252Z" fill="#FF4707"/>
<path d="M1529.15 46.4241C1529.15 45.2443 1529.15 44.4776 1529.1 43.8933C1529.06 43.332 1528.98 43.114 1528.92 43C1528.72 42.6004 1528.39 42.2755 1527.99 42.0718C1527.88 42.0137 1527.66 41.9346 1527.1 41.8887C1526.51 41.841 1525.75 41.8397 1524.57 41.8397H1523.88V48.6768C1523.88 49.8565 1523.88 50.6233 1523.93 51.2075C1523.97 51.7688 1524.05 51.9869 1524.11 52.1008C1524.31 52.5004 1524.64 52.8254 1525.04 53.0291C1525.15 53.0871 1525.37 53.1663 1525.93 53.2121C1526.51 53.2599 1527.28 53.2612 1528.46 53.2612H1529.15V46.4241ZM1533.1 57.2044H1528.46C1527.35 57.2044 1526.39 57.2062 1525.61 57.1423C1524.8 57.0766 1524.01 56.9315 1523.25 56.5432C1522.11 55.9613 1521.18 55.0323 1520.59 53.8904C1520.21 53.1279 1520.06 52.3337 1520 51.5286C1519.93 50.7465 1519.93 49.7915 1519.93 48.6768V37.8965H1524.57C1525.68 37.8965 1526.64 37.8946 1527.42 37.9585C1528.22 38.0243 1529.02 38.1693 1529.78 38.5577C1530.92 39.1396 1531.85 40.0685 1532.43 41.2105C1532.82 41.9729 1532.97 42.7672 1533.03 43.5722C1533.1 44.3543 1533.1 45.3094 1533.1 46.4241V57.2044Z" fill="#FF4707"/>
<path d="M214.244 11.4883C216.655 11.5321 218.202 12.4036 219.099 13.742C219.84 14.8464 220.047 16.147 220.098 17.204L225.26 19.2746L220.027 21.8914C219.704 23.6122 218.733 25.8861 216.754 27.8032C214.546 29.9419 211.139 31.5864 206.138 31.5864C195.963 31.5864 191.56 23.3485 190.606 19.6037L190.306 18.4234H207.777C207.708 17.2596 207.85 15.8855 208.434 14.6552C208.836 13.8099 209.45 13.0247 210.348 12.4456C211.245 11.8666 212.374 11.5272 213.751 11.4903L214.244 11.4883ZM213.802 13.3829C212.714 13.412 211.935 13.6743 211.374 14.0361C210.813 14.3979 210.416 14.8932 210.144 15.4675C209.584 16.6471 209.568 18.1263 209.775 19.1896L209.994 20.316H192.818C194.18 23.9268 198.156 29.6928 206.138 29.6928C210.69 29.6928 213.612 28.2119 215.437 26.4438C217.286 24.6528 218.066 22.5138 218.229 21.1502L218.29 20.6441L220.649 19.4637L218.222 18.4914V17.8512C218.222 16.7827 218.095 15.643 217.527 14.7963C217.015 14.0337 216.015 13.3233 213.802 13.3829Z" fill="#FF4707"/>
<path d="M205.369 30.6816V34.0717H207.791V35.9642H203.477V30.6816H205.369Z" fill="#FF4707"/>
<path d="M209.155 30.6816V34.0717H211.577V35.9642H207.263V30.6816H209.155Z" fill="#FF4707"/>
<path d="M210.292 21.7401C208.561 25.8573 205.856 27.9312 203.133 28.7152C200.463 29.4842 197.84 28.9914 196.254 28.096L197.184 26.4475C198.327 27.0928 200.426 27.5251 202.609 26.8967C204.74 26.283 207.02 24.6364 208.547 21.0059L210.292 21.7401Z" fill="#FF4707"/>
<path d="M216.552 16.793V18.5095H214.659V16.793H216.552Z" fill="#FF4707"/>
<path d="M223.708 31.2344L223.708 57.8665L219.765 57.8665L219.765 31.2344L223.708 31.2344Z" fill="#FF4707"/>
<path d="M228.41 46.0135H222.264V42.0703H228.41V46.0135Z" fill="#FF4707"/>
<path d="M205.876 33.875C211.49 33.875 216.042 38.4264 216.042 44.0411V46.0127H206.12C206.945 48.4827 209.274 50.264 212.022 50.264H215.094V54.2072H212.022C206.407 54.2072 201.855 49.6558 201.855 44.0411V42.0695H211.777C210.953 39.5995 208.623 37.8182 205.876 37.8182H202.803V33.875H205.876Z" fill="#FF4707"/>
<path d="M1391.58 11.4883C1393.99 11.5321 1395.54 12.4036 1396.43 13.742C1397.17 14.8464 1397.38 16.147 1397.43 17.204L1402.59 19.2746L1397.36 21.8914C1397.04 23.6122 1396.07 25.8861 1394.09 27.8032C1391.88 29.9419 1388.47 31.5864 1383.47 31.5864C1373.3 31.5864 1368.89 23.3485 1367.94 19.6037L1367.64 18.4234H1385.11C1385.04 17.2596 1385.18 15.8855 1385.77 14.6552C1386.17 13.8099 1386.78 13.0247 1387.68 12.4456C1388.58 11.8666 1389.71 11.5272 1391.08 11.4903L1391.58 11.4883ZM1391.14 13.3829C1390.05 13.412 1389.27 13.6743 1388.71 14.0361C1388.15 14.3979 1387.75 14.8932 1387.48 15.4675C1386.92 16.6471 1386.9 18.1263 1387.11 19.1896L1387.33 20.316H1370.15C1371.51 23.9268 1375.49 29.6928 1383.47 29.6928C1388.02 29.6928 1390.95 28.2119 1392.77 26.4438C1394.62 24.6528 1395.4 22.5138 1395.56 21.1502L1395.62 20.6441L1397.98 19.4637L1395.56 18.4914V17.8512C1395.56 16.7827 1395.43 15.643 1394.86 14.7963C1394.35 14.0337 1393.35 13.3233 1391.14 13.3829Z" fill="#FF4707"/>
<path d="M1382.7 30.6816V34.0717H1385.12V35.9642H1380.81V30.6816H1382.7Z" fill="#FF4707"/>
<path d="M1386.49 30.6816V34.0717H1388.91V35.9642H1384.6V30.6816H1386.49Z" fill="#FF4707"/>
<path d="M1387.63 21.7401C1385.89 25.8573 1383.19 27.9312 1380.47 28.7152C1377.8 29.4842 1375.17 28.9914 1373.59 28.096L1374.52 26.4475C1375.66 27.0928 1377.76 27.5251 1379.94 26.8967C1382.07 26.283 1384.35 24.6364 1385.88 21.0059L1387.63 21.7401Z" fill="#FF4707"/>
<path d="M1393.88 16.793V18.5095H1391.99V16.793H1393.88Z" fill="#FF4707"/>
<path d="M1401.04 31.2344L1401.04 57.8665L1397.1 57.8665L1397.1 31.2344L1401.04 31.2344Z" fill="#FF4707"/>
<path d="M1405.74 46.0135H1399.6V42.0703H1405.74V46.0135Z" fill="#FF4707"/>
<path d="M1383.21 33.875C1388.82 33.875 1393.38 38.4264 1393.38 44.0411V46.0127H1383.45C1384.28 48.4827 1386.61 50.264 1389.36 50.264H1392.43V54.2072H1389.36C1383.74 54.2072 1379.19 49.6558 1379.19 44.0411V42.0695H1389.11C1388.29 39.5995 1385.96 37.8182 1383.21 37.8182H1380.14V33.875H1383.21Z" fill="#FF4707"/>
<path d="M417.998 11.4883C420.408 11.5321 421.955 12.4036 422.853 13.742C423.594 14.8464 423.801 16.147 423.852 17.204L429.014 19.2746L423.781 21.8914C423.458 23.6122 422.487 25.8861 420.508 27.8032C418.3 29.9419 414.893 31.5864 409.892 31.5864C399.717 31.5864 395.313 23.3485 394.36 19.6037L394.06 18.4234H411.531C411.462 17.2596 411.604 15.8855 412.188 14.6552C412.589 13.8099 413.204 13.0247 414.102 12.4456C414.999 11.8666 416.128 11.5272 417.505 11.4903L417.998 11.4883ZM417.556 13.3829C416.468 13.412 415.689 13.6743 415.128 14.0361C414.567 14.3979 414.17 14.8932 413.898 15.4675C413.338 16.6471 413.322 18.1264 413.528 19.1896L413.748 20.316H396.572C397.934 23.9268 401.909 29.6928 409.892 29.6928C414.444 29.6928 417.366 28.2119 419.191 26.4438C421.04 24.6528 421.82 22.5138 421.983 21.1502L422.044 20.6441L424.403 19.4637L421.976 18.4914V17.8512C421.976 16.7827 421.849 15.643 421.281 14.7963C420.769 14.0337 419.769 13.3233 417.556 13.3829Z" fill="#FF4707"/>
<path d="M409.144 30.707V34.0971H411.565V35.9896H407.251V30.707H409.144Z" fill="#FF4707"/>
<path d="M412.908 30.707V34.0971H415.33V35.9896H411.016V30.707H412.908Z" fill="#FF4707"/>
<path d="M414.045 21.7616C412.314 25.8788 409.608 27.9527 406.886 28.7367C404.216 29.5057 401.593 29.0129 400.007 28.1175L400.937 26.469C402.08 27.1143 404.179 27.5466 406.362 26.9181C408.493 26.3045 410.773 24.6579 412.3 21.0273L414.045 21.7616Z" fill="#FF4707"/>
<path d="M420.324 16.793V18.5095H418.432V16.793H420.324Z" fill="#FF4707"/>
<path d="M413.042 33.9616L425.819 57.3283L422.36 59.2202L409.582 35.8535L413.042 33.9616Z" fill="#FF4707"/>
<path d="M424.259 44.6746L418.867 47.6232L416.975 44.1635L422.367 41.2148L424.259 44.6746Z" fill="#FF4707"/>
<path d="M407.339 40.5816L416.64 57.5896L412.574 59.8131C411.596 60.3479 410.759 60.8078 410.042 61.127C409.304 61.4555 408.537 61.7093 407.682 61.7344C406.401 61.7718 405.14 61.4024 404.082 60.6796C403.375 60.197 402.867 59.5697 402.423 58.895C401.992 58.2394 401.535 57.4006 401 56.4225L395.791 46.8965L399.251 45.0046L404.46 54.5306C405.026 55.5658 405.395 56.2378 405.717 56.7276C406.027 57.1981 406.201 57.3514 406.306 57.4235C406.677 57.6764 407.118 57.8056 407.566 57.7926C407.694 57.7889 407.923 57.7537 408.438 57.5246C408.973 57.2862 409.647 56.9194 410.682 56.3534L411.288 56.0218L403.879 42.4734L407.339 40.5816Z" fill="#FF4707"/>
<path d="M398.739 52.2896L396.529 48.248L399.989 46.3562L402.199 50.3978C402.762 51.4273 404.054 51.8052 405.083 51.242L410.026 48.5391L411.919 51.9997L406.976 54.7026C404.035 56.3107 400.348 55.2302 398.739 52.2896Z" fill="#FF4707"/>
<path d="M1595.33 11.4883C1597.74 11.5321 1599.29 12.4036 1600.19 13.742C1600.93 14.8464 1601.13 16.147 1601.18 17.204L1606.35 19.2746L1601.11 21.8914C1600.79 23.6122 1599.82 25.8861 1597.84 27.8032C1595.63 29.9419 1592.22 31.5864 1587.22 31.5864C1577.05 31.5864 1572.65 23.3485 1571.69 19.6037L1571.39 18.4234H1588.86C1588.79 17.2596 1588.94 15.8855 1589.52 14.6552C1589.92 13.8099 1590.54 13.0247 1591.43 12.4456C1592.33 11.8666 1593.46 11.5272 1594.84 11.4903L1595.33 11.4883ZM1594.89 13.3829C1593.8 13.412 1593.02 13.6743 1592.46 14.0361C1591.9 14.3979 1591.5 14.8932 1591.23 15.4675C1590.67 16.6471 1590.65 18.1264 1590.86 19.1896L1591.08 20.316H1573.9C1575.27 23.9268 1579.24 29.6928 1587.22 29.6928C1591.78 29.6928 1594.7 28.2119 1596.52 26.4438C1598.37 24.6528 1599.15 22.5138 1599.32 21.1502L1599.38 20.6441L1601.73 19.4637L1599.31 18.4914V17.8512C1599.31 16.7827 1599.18 15.643 1598.61 14.7963C1598.1 14.0337 1597.1 13.3233 1594.89 13.3829Z" fill="#FF4707"/>
<path d="M1586.47 30.707V34.0971H1588.9V35.9896H1584.58V30.707H1586.47Z" fill="#FF4707"/>
<path d="M1590.24 30.707V34.0971H1592.66V35.9896H1588.35V30.707H1590.24Z" fill="#FF4707"/>
<path d="M1591.38 21.7616C1589.65 25.8788 1586.94 27.9527 1584.22 28.7367C1581.55 29.5057 1578.93 29.0129 1577.34 28.1175L1578.27 26.469C1579.41 27.1143 1581.51 27.5466 1583.69 26.9181C1585.82 26.3045 1588.11 24.6579 1589.63 21.0273L1591.38 21.7616Z" fill="#FF4707"/>
<path d="M1597.66 16.793V18.5095H1595.76V16.793H1597.66Z" fill="#FF4707"/>
<path d="M1590.38 33.9636L1603.15 57.3302L1599.69 59.2221L1586.92 35.8555L1590.38 33.9636Z" fill="#FF4707"/>
<path d="M1601.59 44.6765L1596.2 47.6252L1594.31 44.1655L1599.7 41.2168L1601.59 44.6765Z" fill="#FF4707"/>
<path d="M1584.67 40.5796L1593.97 57.5876L1589.91 59.8112C1588.93 60.346 1588.09 60.8058 1587.38 61.125C1586.64 61.4536 1585.87 61.7074 1585.02 61.7324C1583.73 61.7698 1582.47 61.4004 1581.42 60.6777C1580.71 60.1951 1580.2 59.5678 1579.76 58.893C1579.33 58.2374 1578.87 57.3986 1578.33 56.4206L1573.13 46.8945L1576.58 45.0026L1581.79 54.5287C1582.36 55.5638 1582.73 56.2359 1583.05 56.7256C1583.36 57.1961 1583.53 57.3494 1583.64 57.4216C1584.01 57.6744 1584.45 57.8036 1584.9 57.7906C1585.03 57.7869 1585.26 57.7517 1585.77 57.5227C1586.31 57.2842 1586.98 56.9175 1588.02 56.3515L1588.62 56.0198L1581.21 42.4715L1584.67 40.5796Z" fill="#FF4707"/>
<path d="M1576.07 52.2896L1573.86 48.248L1577.32 46.3562L1579.53 50.3978C1580.1 51.4273 1581.39 51.8052 1582.42 51.242L1587.36 48.5391L1589.25 51.9997L1584.31 54.7026C1581.37 56.3107 1577.68 55.2302 1576.07 52.2896Z" fill="#FF4707"/>
<path d="M479.299 12.4102C481.709 12.454 483.256 13.3255 484.154 14.6638C484.895 15.7683 485.101 17.0689 485.152 18.1259L490.315 20.1965L485.081 22.8133C484.759 24.5341 483.788 26.808 481.808 28.7251C479.6 30.8638 476.194 32.5082 471.193 32.5083C461.017 32.5083 456.614 24.2704 455.66 20.5256L455.36 19.3453H472.832C472.762 18.1814 472.905 16.8074 473.489 15.5771C473.89 14.7318 474.505 13.9466 475.402 13.3674C476.3 12.7885 477.429 12.449 478.805 12.4122L479.299 12.4102ZM478.856 14.3047C477.768 14.3339 476.99 14.5961 476.429 14.9579C475.868 15.3197 475.471 15.815 475.198 16.3894C474.638 17.5689 474.623 19.0482 474.829 20.1115L475.048 21.2378H457.873C459.235 24.8487 463.21 30.6147 471.193 30.6147C475.745 30.6147 478.667 29.1338 480.492 27.3657C482.341 25.5747 483.121 23.4357 483.284 22.0721L483.345 21.5659L485.704 20.3856L483.277 19.4133V18.7731C483.277 17.7046 483.15 16.5649 482.582 15.7182C482.07 14.9556 481.07 14.2452 478.856 14.3047Z" fill="#FF4707"/>
<path d="M470.424 31.627V35.017H472.846V36.9096H468.531V31.627H470.424Z" fill="#FF4707"/>
<path d="M474.187 31.627V35.017H476.608V36.9096H472.294V31.627H474.187Z" fill="#FF4707"/>
<path d="M475.322 22.6834C473.591 26.8007 470.886 28.8745 468.163 29.6586C465.493 30.4276 462.87 29.9348 461.284 29.0394L462.214 27.3909C463.358 28.0362 465.456 28.4685 467.639 27.84C469.77 27.2264 472.05 25.5798 473.577 21.9492L475.322 22.6834Z" fill="#FF4707"/>
<path d="M481.604 17.7188V19.4353H479.712V17.7188H481.604Z" fill="#FF4707"/>
<path d="M487.469 32.3105L487.469 58.9426L483.525 58.9426L483.525 32.3105L487.469 32.3105Z" fill="#FF4707"/>
<path d="M492.171 47.0897H486.025V43.1465H492.171V47.0897Z" fill="#FF4707"/>
<path d="M466.13 42.0407V53.8203H470.073V42.0407C470.073 40.584 471.254 39.4029 472.711 39.4029C474.168 39.4029 475.349 40.584 475.349 42.0407V53.8203H479.292V42.0407C479.292 38.406 476.346 35.4597 472.711 35.4597C469.076 35.4597 466.13 38.406 466.13 42.0407Z" fill="#FF4707"/>
<path d="M1656.63 12.4102C1659.04 12.454 1660.59 13.3255 1661.49 14.6638C1662.23 15.7683 1662.43 17.0689 1662.48 18.1259L1667.65 20.1965L1662.41 22.8133C1662.09 24.5341 1661.12 26.808 1659.14 28.7251C1656.93 30.8638 1653.53 32.5082 1648.53 32.5083C1638.35 32.5083 1633.95 24.2704 1632.99 20.5256L1632.69 19.3453H1650.16C1650.09 18.1814 1650.24 16.8074 1650.82 15.5771C1651.22 14.7318 1651.84 13.9466 1652.73 13.3674C1653.63 12.7885 1654.76 12.449 1656.14 12.4122L1656.63 12.4102ZM1656.19 14.3047C1655.1 14.3339 1654.32 14.5961 1653.76 14.9579C1653.2 15.3197 1652.8 15.815 1652.53 16.3894C1651.97 17.5689 1651.95 19.0482 1652.16 20.1115L1652.38 21.2378H1635.21C1636.57 24.8487 1640.54 30.6147 1648.53 30.6147C1653.08 30.6147 1656 29.1338 1657.82 27.3657C1659.67 25.5747 1660.45 23.4357 1660.62 22.0721L1660.68 21.5659L1663.04 20.3856L1660.61 19.4133V18.7731C1660.61 17.7046 1660.48 16.5649 1659.91 15.7182C1659.4 14.9556 1658.4 14.2452 1656.19 14.3047Z" fill="#FF4707"/>
<path d="M1647.76 31.627V35.017H1650.18V36.9096H1645.86V31.627H1647.76Z" fill="#FF4707"/>
<path d="M1651.52 31.627V35.017H1653.94V36.9096H1649.63V31.627H1651.52Z" fill="#FF4707"/>
<path d="M1652.65 22.6834C1650.92 26.8007 1648.22 28.8745 1645.49 29.6586C1642.82 30.4276 1640.2 29.9348 1638.62 29.0394L1639.55 27.3909C1640.69 28.0362 1642.79 28.4685 1644.97 27.84C1647.1 27.2264 1649.38 25.5798 1650.91 21.9492L1652.65 22.6834Z" fill="#FF4707"/>
<path d="M1658.94 17.7188V19.4353H1657.04V17.7188H1658.94Z" fill="#FF4707"/>
<path d="M1664.8 32.3105L1664.8 58.9426L1660.86 58.9426L1660.86 32.3105L1664.8 32.3105Z" fill="#FF4707"/>
<path d="M1669.5 47.0897H1663.36V43.1465H1669.5V47.0897Z" fill="#FF4707"/>
<path d="M1643.46 42.0407V53.8203H1647.41V42.0407C1647.41 40.584 1648.59 39.4029 1650.04 39.4029C1651.5 39.4029 1652.68 40.584 1652.68 42.0407V53.8203H1656.62V42.0407C1656.62 38.406 1653.68 35.4597 1650.04 35.4597C1646.41 35.4597 1643.46 38.406 1643.46 42.0407Z" fill="#FF4707"/>
<path d="M679.968 14.3945C682.378 14.4384 683.925 15.3099 684.823 16.6482C685.564 17.7526 685.77 19.0532 685.821 20.1103L690.984 22.1809L685.75 24.7977C685.428 26.5185 684.457 28.7924 682.477 30.7095C680.269 32.8481 676.863 34.4926 671.862 34.4926C661.686 34.4926 657.283 26.2548 656.329 22.51L656.029 21.3296H673.501C673.431 20.1658 673.574 18.7918 674.158 17.5615C674.559 16.7162 675.173 15.931 676.071 15.3518C676.969 14.7728 678.098 14.4334 679.474 14.3965L679.968 14.3945ZM679.525 16.2891C678.437 16.3183 677.659 16.5805 677.098 16.9423C676.537 17.3041 676.14 17.7994 675.867 18.3737C675.307 19.5533 675.291 21.0326 675.498 22.0959L675.717 23.2222H658.542C659.904 26.8331 663.879 32.5991 671.862 32.5991C676.414 32.5991 679.336 31.1182 681.161 29.3501C683.01 27.559 683.79 25.4201 683.953 24.0565L684.014 23.5503L686.373 22.37L683.946 21.3977V20.7575C683.946 19.689 683.819 18.5493 683.251 17.7025C682.739 16.9399 681.739 16.2296 679.525 16.2891Z" fill="#FF4707"/>
<path d="M671.113 33.6113V37.0014H673.535V38.8939H669.221V33.6113H671.113Z" fill="#FF4707"/>
<path d="M674.878 33.6113V37.0014H677.3V38.8939H672.985V33.6113H674.878Z" fill="#FF4707"/>
<path d="M676.016 24.6678C674.285 28.7851 671.579 30.8589 668.857 31.6429C666.186 32.4119 663.564 31.9191 661.978 31.0237L662.908 29.3752C664.051 30.0206 666.15 30.4529 668.332 29.8244C670.463 29.2107 672.744 27.5641 674.27 23.9336L676.016 24.6678Z" fill="#FF4707"/>
<path d="M682.297 19.7012V21.4177H680.404V19.7012H682.297Z" fill="#FF4707"/>
<path d="M687.107 32.8027L687.107 59.4348L683.164 59.4348L683.164 32.8027L687.107 32.8027Z" fill="#FF4707"/>
<path d="M691.809 47.5819H685.663V43.6387H691.809V47.5819Z" fill="#FF4707"/>
<path d="M666.279 46.5559V54.2383H670.222V46.5559C670.222 45.0992 671.404 43.9181 672.86 43.9181C674.317 43.9181 675.498 45.0992 675.498 46.5559V54.2383H679.441V46.5559C679.441 42.9213 676.495 39.9749 672.86 39.9749C669.226 39.9749 666.279 42.9213 666.279 46.5559Z" fill="#FF4707"/>
<path d="M680.541 36.8984V40.8416H665.177V36.8984L680.541 36.8984Z" fill="#FF4707"/>
<path d="M741.163 18.3789C743.573 18.4228 745.121 19.2942 746.018 20.6326C746.759 21.737 746.966 23.0376 747.017 24.0946L752.179 26.1653L746.946 28.7821C746.623 30.5029 745.652 32.7768 743.673 34.6939C741.465 36.8325 738.058 38.477 733.057 38.477C722.882 38.477 718.478 30.2392 717.525 26.4944L717.225 25.314H734.696C734.627 24.1502 734.769 22.7761 735.353 21.5459C735.755 20.7005 736.369 19.9153 737.267 19.3362C738.164 18.7572 739.293 18.4178 740.67 18.3809L741.163 18.3789ZM740.721 20.2735C739.633 20.3026 738.854 20.5649 738.293 20.9267C737.732 21.2885 737.335 21.7838 737.063 22.3581C736.503 23.5377 736.487 25.017 736.694 26.0802L736.913 27.2066H719.737C721.099 30.8175 725.074 36.5834 733.057 36.5834C737.609 36.5834 740.531 35.1025 742.356 33.3345C744.205 31.5434 744.985 29.4044 745.148 28.0408L745.209 27.5347L747.568 26.3543L745.141 25.382V24.7418C745.141 23.6734 745.014 22.5336 744.446 21.6869C743.934 20.9243 742.934 20.2139 740.721 20.2735Z" fill="#FF4707"/>
<path d="M732.288 37.5996V40.9896H734.71V42.8822H730.396V37.5996H732.288Z" fill="#FF4707"/>
<path d="M736.051 37.5977V40.9877H738.473V42.8803H734.158V37.5977H736.051Z" fill="#FF4707"/>
<path d="M737.186 28.6307C735.455 32.748 732.749 34.8218 730.027 35.6058C727.356 36.3748 724.734 35.882 723.147 34.9866L724.078 33.3381C725.221 33.9834 727.319 34.4158 729.502 33.7873C731.633 33.1736 733.914 31.527 735.44 27.8965L737.186 28.6307Z" fill="#FF4707"/>
<path d="M743.469 23.6875V25.404H741.576V23.6875H743.469Z" fill="#FF4707"/>
<path d="M763.517 21.3933L770.148 47.1867L766.329 48.1685L759.698 22.375L763.517 21.3933Z" fill="#FF4707"/>
<path d="M771.751 34.5378L765.799 36.0679L764.817 32.2489L770.77 30.7188L771.751 34.5378Z" fill="#FF4707"/>
<path d="M747.047 40.96L748.96 48.4004L752.779 47.4186L750.866 39.9782C750.504 38.5674 751.353 37.1294 752.764 36.7667C754.175 36.4041 755.613 37.2539 755.976 38.6647L757.888 46.1052L761.707 45.1234L759.795 37.683C758.89 34.1627 755.303 32.0428 751.783 32.9477C748.262 33.8527 746.142 37.4397 747.047 40.96Z" fill="#FF4707"/>
<path d="M758.456 28.0594L759.438 31.8784L744.557 35.7038L743.575 31.8848L758.456 28.0594Z" fill="#FF4707"/>
<path d="M753.417 31.39L749.598 32.3717L748.323 27.4114L752.142 26.4297L753.417 31.39Z" fill="#FF4707"/>
<path d="M618.905 21.8235C619.533 20.8404 620.458 19.8184 621.654 19.1727C622.477 18.7285 623.436 18.4595 624.502 18.5225C625.567 18.5855 626.678 18.977 627.809 19.7578C630.03 21.2909 630.874 23.0119 630.806 24.7284C630.753 26.055 630.152 27.2251 629.57 28.1084L632.545 32.8268L626.758 31.8515C625.484 33.0556 623.357 34.3137 620.63 34.6914C617.585 35.1129 613.865 34.4308 609.831 31.4924C601.623 25.5122 602.917 16.2387 604.36 12.6557L604.814 11.5273L618.905 21.8235ZM605.724 14.5363C604.693 18.2552 604.509 25.2735 610.946 29.9629C614.617 32.6374 617.852 33.1656 620.371 32.8168C622.922 32.4634 624.811 31.1997 625.739 30.195L626.087 29.8189L628.687 30.257L627.295 28.0484L627.673 27.5292C628.305 26.6614 628.874 25.6689 628.914 24.6533C628.951 23.7397 628.562 22.5774 626.734 21.3153C625.84 20.6985 625.057 20.4515 624.39 20.412C623.724 20.3727 623.112 20.5368 622.553 20.8382C621.407 21.4571 620.525 22.638 620.075 23.617L619.591 24.6693L605.724 14.5363Z" fill="#FF4707"/>
<path d="M609.722 30.3156L607.726 33.0504L609.67 34.4738L608.553 36.0023L605.083 33.4625L608.193 29.1992L609.722 30.3156Z" fill="#FF4707"/>
<path d="M612.76 32.5617L610.763 35.2965L612.708 36.7199L611.59 38.2484L608.12 35.7086L611.23 31.4453L612.76 32.5617Z" fill="#FF4707"/>
<path d="M605.616 22.0586C606.161 23.258 607.601 24.8452 609.734 25.6247C611.817 26.3855 614.627 26.3999 618 24.3683L618.977 25.9898C615.152 28.2941 611.745 28.3746 609.084 27.4022C606.474 26.4484 604.646 24.5028 603.892 22.8408L605.616 22.0586Z" fill="#FF4707"/>
<path d="M625.956 25.7451L625.708 26.0402L625.461 26.3353L623.941 25.0589L624.438 24.4688L625.956 25.7451Z" fill="#FF4707"/>
<path d="M625.208 26.6026L624.96 26.8976L624.713 27.1927L623.193 25.9164L623.69 25.3262L625.208 26.6026Z" fill="#FF4707"/>
<path d="M620.455 21.9839L619.634 22.454L618.812 22.9232L611.374 9.90622C611.163 10.1377 610.935 10.4263 610.728 10.7765C610.113 11.8184 609.628 13.4631 610.408 15.842L609.509 16.1371L608.609 16.4312C607.65 13.5056 608.222 11.298 609.098 9.8142C609.527 9.08688 610.019 8.55091 610.405 8.1947C610.599 8.01606 610.769 7.88091 610.894 7.78758C610.957 7.74089 611.009 7.70376 611.047 7.67755C611.066 7.66453 611.083 7.65458 611.095 7.64654C611.101 7.64253 611.107 7.63831 611.111 7.63553C611.113 7.63439 611.115 7.63347 611.116 7.63253L611.119 7.63053L611.12 7.62953C611.121 7.62961 611.13 7.64349 611.473 8.1947L611.12 7.62953L611.955 7.10938L620.455 21.9839Z" fill="#FF4707"/>
<path d="M625.249 38.7928L613.233 62.56L609.714 60.7808L621.73 37.0137L625.249 38.7928Z" fill="#FF4707"/>
<path d="M622.777 54.105L617.293 51.332L619.072 47.813L624.557 50.5859L622.777 54.105Z" fill="#FF4707"/>
<path d="M607.27 47.4934C606.612 48.7934 605.025 49.3146 603.725 48.6573C602.425 48.0001 601.904 46.4131 602.562 45.1131L605.335 39.6284C605.992 38.3284 607.579 37.8073 608.879 38.4645C610.179 39.1218 610.7 40.7087 610.043 42.0087L607.27 47.4934ZM613.562 43.7879C615.202 40.5442 613.902 36.5854 610.658 34.9455C607.414 33.3055 603.455 34.6055 601.816 37.8492L599.043 43.334C597.403 46.5777 598.703 50.5364 601.946 52.1763C605.19 53.8163 609.149 52.5163 610.789 49.2726L613.562 43.7879Z" fill="#FF4707"/>
<path d="M889.779 11.3125C892.19 11.3564 893.737 12.2279 894.635 13.5662C895.375 14.6706 895.582 15.9712 895.633 17.0282L900.795 19.0989L895.562 21.7157C895.24 23.4365 894.268 25.7104 892.289 27.6275C890.081 29.7661 886.674 31.4106 881.674 31.4106C871.498 31.4106 867.095 23.1727 866.141 19.428L865.841 18.2476H883.312C883.243 17.0838 883.385 15.7097 883.969 14.4795C884.371 13.6341 884.985 12.8489 885.883 12.2698C886.781 11.6908 887.909 11.3514 889.286 11.3145L889.779 11.3125ZM889.337 13.2071C888.249 13.2362 887.47 13.4985 886.909 13.8603C886.348 14.2221 885.952 14.7174 885.679 15.2917C885.119 16.4713 885.103 17.9506 885.31 19.0138L885.529 20.1402H868.354C869.715 23.7511 873.691 29.517 881.674 29.517C886.225 29.517 889.147 28.0361 890.972 26.268C892.822 24.477 893.601 22.338 893.764 20.9744L893.825 20.4683L896.184 19.2879L893.757 18.3156V17.6754C893.757 16.607 893.63 15.4672 893.062 14.6205C892.55 13.8579 891.55 13.1476 889.337 13.2071Z" fill="#FF4707"/>
<path d="M880.904 30.5078V33.8978H883.326V35.7904H879.012V30.5078H880.904Z" fill="#FF4707"/>
<path d="M884.668 30.5078V33.8978H887.09V35.7904H882.775V30.5078H884.668Z" fill="#FF4707"/>
<path d="M885.803 21.5663C884.072 25.6835 881.366 27.7573 878.644 28.5414C875.973 29.3104 873.351 28.8176 871.765 27.9222L872.695 26.2737C873.838 26.919 875.937 27.3513 878.12 26.7228C880.25 26.1092 882.531 24.4626 884.057 20.832L885.803 21.5663Z" fill="#FF4707"/>
<path d="M892.086 16.6191V18.3357H890.193V16.6191H892.086Z" fill="#FF4707"/>
<path d="M877.936 46.8366C876.506 41.4076 879.748 35.8464 885.177 34.4164L887.084 33.9141L888.088 37.7273L886.182 38.2295C882.859 39.1048 880.874 42.5093 881.749 45.8322C882.625 49.1551 886.029 51.14 889.352 50.2647L891.259 49.7625L892.263 53.5757L890.356 54.0779C884.927 55.5079 879.366 52.2656 877.936 46.8366Z" fill="#FF4707"/>
<path d="M895.195 28.519L901.979 54.2727L898.166 55.2771L891.382 29.5234L895.195 28.519Z" fill="#FF4707"/>
<path d="M903.507 41.6139L897.564 43.1794L896.56 39.3663L902.503 37.8008L903.507 41.6139Z" fill="#FF4707"/>
<path d="M888.766 41.9448L889.771 45.7579L880.856 48.1061L879.852 44.293L888.766 41.9448Z" fill="#FF4707"/>
<path d="M955.882 11.6641C958.292 11.7079 959.839 12.5794 960.737 13.9177C961.478 15.0222 961.684 16.3228 961.735 17.3798L966.898 19.4504L961.664 22.0672C961.342 23.788 960.371 26.0619 958.391 27.979C956.183 30.1177 952.777 31.7621 947.776 31.7622C937.6 31.7622 933.197 23.5243 932.243 19.7795L931.943 18.5992H949.415C949.345 17.4353 949.488 16.0613 950.072 14.831C950.473 13.9857 951.088 13.2005 951.985 12.6214C952.883 12.0424 954.012 11.7029 955.388 11.6661L955.882 11.6641ZM955.44 13.5586C954.351 13.5878 953.573 13.85 953.012 14.2118C952.451 14.5736 952.054 15.0689 951.781 15.6433C951.221 16.8229 951.206 18.3021 951.412 19.3654L951.631 20.4917H934.456C935.818 24.1026 939.793 29.8686 947.776 29.8686C952.328 29.8686 955.25 28.3877 957.075 26.6196C958.924 24.8286 959.704 22.6896 959.867 21.326L959.928 20.8198L962.287 19.6395L959.86 18.6672V18.027C959.86 16.9585 959.733 15.8188 959.165 14.9721C958.653 14.2095 957.653 13.4991 955.44 13.5586Z" fill="#FF4707"/>
<path d="M947.004 30.8594V34.2494H949.426V36.142H945.111V30.8594H947.004Z" fill="#FF4707"/>
<path d="M950.792 30.8594V34.2494H953.214V36.142H948.899V30.8594H950.792Z" fill="#FF4707"/>
<path d="M951.93 21.9159C950.199 26.0331 947.493 28.1069 944.771 28.891C942.1 29.66 939.478 29.1672 937.892 28.2718L938.822 26.6233C939.965 27.2686 942.064 27.7009 944.247 27.0724C946.377 26.4588 948.658 24.8122 950.184 21.1816L951.93 21.9159Z" fill="#FF4707"/>
<path d="M958.188 16.9473V18.6638H956.296V16.9473H958.188Z" fill="#FF4707"/>
<path d="M963.187 30.8574L963.187 57.4895L959.244 57.4895L959.244 30.8574L963.187 30.8574Z" fill="#FF4707"/>
<path d="M967.89 45.6366H961.744V41.6934H967.89V45.6366Z" fill="#FF4707"/>
<path d="M949.531 43.1526C949.531 42.1711 949.529 41.5337 949.496 41.045C949.464 40.5742 949.408 40.387 949.369 40.2908C949.153 39.77 948.739 39.3561 948.218 39.1404C948.122 39.1006 947.935 39.0455 947.464 39.0134C947.42 39.0104 947.375 39.0089 947.328 39.0064V44.1769C947.328 45.1585 947.33 45.7959 947.363 46.2846C947.395 46.7554 947.45 46.9426 947.49 47.0388C947.706 47.5596 948.12 47.9734 948.64 48.1892C948.737 48.229 948.924 48.2841 949.395 48.3162C949.439 48.3192 949.484 48.3197 949.531 48.3222V43.1526ZM953.474 52.2944H951.502C950.575 52.2944 949.781 52.296 949.127 52.2514C948.455 52.2056 947.788 52.1043 947.131 51.8323C945.644 51.2163 944.463 50.0351 943.847 48.5483C943.575 47.8915 943.474 47.2244 943.428 46.5527C943.383 45.8987 943.385 45.1043 943.385 44.1769V35.0352H945.356C946.284 35.0352 947.078 35.0336 947.732 35.0782C948.404 35.124 949.071 35.2253 949.728 35.4973C951.215 36.1133 952.396 37.2944 953.012 38.7813C953.284 39.4381 953.385 40.1051 953.431 40.7769C953.475 41.4309 953.474 42.2252 953.474 43.1526V52.2944Z" fill="#FF4707"/>
<path d="M955.599 34.0117V37.9549H941.259V34.0117H955.599Z" fill="#FF4707"/>
<path d="M955.599 49.375V53.3182H941.259V49.375H955.599Z" fill="#FF4707"/>
<path d="M1017.24 12.1719C1019.65 12.2157 1021.2 13.0872 1022.1 14.4256C1022.84 15.53 1023.04 16.8306 1023.1 17.8876L1028.26 19.9582L1023.02 22.575C1022.7 24.2958 1021.73 26.5697 1019.75 28.4868C1017.54 30.6255 1014.14 32.27 1009.14 32.27C998.961 32.27 994.558 24.0321 993.604 20.2873L993.304 19.107H1010.78C1010.71 17.9432 1010.85 16.5691 1011.43 15.3388C1011.83 14.4935 1012.45 13.7083 1013.35 13.1292C1014.24 12.5502 1015.37 12.2108 1016.75 12.1739L1017.24 12.1719ZM1016.8 14.0665C1015.71 14.0956 1014.93 14.3579 1014.37 14.7196C1013.81 15.0815 1013.41 15.5768 1013.14 16.1511C1012.58 17.3307 1012.57 18.8099 1012.77 19.8732L1012.99 20.9996H995.816C997.178 24.6104 1001.15 30.3764 1009.14 30.3764C1013.69 30.3764 1016.61 28.8955 1018.44 27.1274C1020.28 25.3364 1021.06 23.1974 1021.23 21.8338L1021.29 21.3277L1023.65 20.1473L1021.22 19.175V18.5348C1021.22 17.4663 1021.09 16.3266 1020.52 15.4799C1020.01 14.7173 1019.01 14.0069 1016.8 14.0665Z" fill="#FF4707"/>
<path d="M1008.37 31.3672V34.7572H1010.79V36.6498H1006.48V31.3672H1008.37Z" fill="#FF4707"/>
<path d="M1012.15 31.3672V34.7572H1014.58V36.6498H1010.26V31.3672H1012.15Z" fill="#FF4707"/>
<path d="M1013.29 22.4237C1011.56 26.5409 1008.85 28.6148 1006.13 29.3988C1003.46 30.1678 1000.84 29.675 999.252 28.7796L1000.18 27.1311C1001.33 27.7764 1003.42 28.2087 1005.61 27.5802C1007.74 26.9666 1010.02 25.32 1011.54 21.6895L1013.29 22.4237Z" fill="#FF4707"/>
<path d="M1019.55 17.457V19.1736H1017.66V17.457H1019.55Z" fill="#FF4707"/>
<path d="M1024.42 34.3379L1024.42 60.97L1020.47 60.97L1020.47 34.3379L1024.42 34.3379Z" fill="#FF4707"/>
<path d="M1029.12 49.117H1022.97V45.1738H1029.12V49.117Z" fill="#FF4707"/>
<path d="M1012.81 50.7295C1012.81 52.1863 1011.63 53.3673 1010.17 53.3673C1008.72 53.3673 1007.54 52.1863 1007.54 50.7295C1007.54 49.2728 1008.72 48.0917 1010.17 48.0917C1011.63 48.0917 1012.81 49.2728 1012.81 50.7295ZM1016.75 50.7295C1016.75 47.0949 1013.81 44.1485 1010.17 44.1485C1006.54 44.1485 1003.59 47.0949 1003.59 50.7295C1003.59 54.3642 1006.54 57.3105 1010.17 57.3105C1013.81 57.3105 1016.75 54.3642 1016.75 50.7295Z" fill="#FF4707"/>
<path d="M1017.85 39.5352V43.4784H1002.49V39.5352L1017.85 39.5352Z" fill="#FF4707"/>
<path d="M1012.14 41.5083L1008.2 41.5083L1008.2 36.3867L1012.14 36.3867L1012.14 41.5083Z" fill="#FF4707"/>
</svg>
