<svg width="179" height="80" viewBox="0 0 179 80" fill="none" xmlns="http://www.w3.org/2000/svg">
<g filter="url(#filter0_d_2479_163)">
<rect x="5" y="3" width="168.535" height="69.6" rx="34.8" fill="#FF4707"/>
<path d="M42.6516 31.5572V32.5812C42.6516 36.8052 44.9236 41.6052 49.6596 43.7172L47.4196 46.9492C44.1876 45.5092 41.8836 42.7572 40.6036 39.4292C39.3556 42.9492 37.0516 45.9252 33.7236 47.4292L31.4836 44.1972C36.2196 41.9892 38.4276 36.9972 38.4276 32.5812V31.5572H32.4756V28.1972H38.4276V24.1012H42.6516V28.1972H48.5076V31.5572H42.6516ZM52.1556 23.3972H56.3796V52.9332H52.1556V38.0852H46.9396V34.6612H52.1556V23.3972ZM74.3931 23.9732C80.8891 23.9732 85.0811 26.1492 85.0811 29.7012C85.0811 33.2852 80.8891 35.4292 74.3931 35.4292C67.8971 35.4292 63.7371 33.2852 63.7371 29.7012C63.7371 26.1492 67.8971 23.9732 74.3931 23.9732ZM74.3931 27.2052C70.3931 27.2052 68.0891 28.0372 68.0891 29.7012C68.0891 31.3652 70.3931 32.1972 74.3931 32.1972C78.4251 32.1972 80.7291 31.3652 80.7291 29.7012C80.7291 28.0372 78.4251 27.2052 74.3931 27.2052ZM64.1851 42.5332H84.5371V52.5172H64.1851V42.5332ZM80.3771 45.8292H68.3131V49.2212H80.3771V45.8292ZM61.0811 37.1252H87.7051V40.4532H61.0811V37.1252ZM103.831 24.8692C110.039 24.8692 114.839 28.2612 114.839 33.4132C114.839 38.5332 110.039 41.9252 103.831 41.9252C97.6546 41.9252 92.8546 38.5332 92.8546 33.4132C92.8546 28.2612 97.6546 24.8692 103.831 24.8692ZM103.831 28.3252C99.8306 28.3252 96.9826 30.2132 96.9826 33.4132C96.9826 36.5492 99.8306 38.4692 103.831 38.4692C107.863 38.4692 110.711 36.5492 110.711 33.4132C110.711 30.2132 107.863 28.3252 103.831 28.3252ZM90.5186 45.8932H117.207V49.3492H90.5186V45.8932ZM135.38 46.1812H146.644V49.6372H119.956V46.1812H131.156V41.7972H123.028V31.8132H139.476V28.6452H122.996V25.2852H143.636V35.1092H127.22V38.4052H144.308V41.7972H135.38V46.1812Z" fill="white"/>
</g>
<defs>
<filter id="filter0_d_2479_163" x="0" y="0" width="178.535" height="79.6016" filterUnits="userSpaceOnUse" color-interpolation-filters="sRGB">
<feFlood flood-opacity="0" result="BackgroundImageFix"/>
<feColorMatrix in="SourceAlpha" type="matrix" values="0 0 0 0 0 0 0 0 0 0 0 0 0 0 0 0 0 0 127 0" result="hardAlpha"/>
<feOffset dy="2"/>
<feGaussianBlur stdDeviation="2.5"/>
<feComposite in2="hardAlpha" operator="out"/>
<feColorMatrix type="matrix" values="0 0 0 0 0 0 0 0 0 0 0 0 0 0 0 0 0 0 0.2 0"/>
<feBlend mode="normal" in2="BackgroundImageFix" result="effect1_dropShadow_2479_163"/>
<feBlend mode="normal" in="SourceGraphic" in2="effect1_dropShadow_2479_163" result="shape"/>
</filter>
</defs>
</svg>
