<svg width="182" height="84" viewBox="0 0 182 84" fill="none" xmlns="http://www.w3.org/2000/svg">
<g filter="url(#filter0_d_2482_2763)">
<rect x="5" y="3" width="172" height="74" rx="37" fill="#FF4707" shape-rendering="crispEdges"/>
<path d="M45.384 32.44V33.464C45.384 37.688 47.656 42.488 52.392 44.6L50.152 47.832C46.92 46.392 44.616 43.64 43.336 40.312C42.088 43.832 39.784 46.808 36.456 48.312L34.216 45.08C38.952 42.872 41.16 37.88 41.16 33.464V32.44H35.208V29.08H41.16V24.984H45.384V29.08H51.24V32.44H45.384ZM54.888 24.28H59.112V53.816H54.888V38.968H49.672V35.544H54.888V24.28ZM76.4855 24.856C82.9815 24.856 87.1735 27.032 87.1735 30.584C87.1735 34.168 82.9815 36.312 76.4855 36.312C69.9895 36.312 65.8295 34.168 65.8295 30.584C65.8295 27.032 69.9895 24.856 76.4855 24.856ZM76.4855 28.088C72.4855 28.088 70.1815 28.92 70.1815 30.584C70.1815 32.248 72.4855 33.08 76.4855 33.08C80.5175 33.08 82.8215 32.248 82.8215 30.584C82.8215 28.92 80.5175 28.088 76.4855 28.088ZM66.2775 43.416H86.6295V53.4H66.2775V43.416ZM82.4695 46.712H70.4055V50.104H82.4695V46.712ZM63.1735 38.008H89.7975V41.336H63.1735V38.008ZM105.283 25.752C111.491 25.752 116.291 29.144 116.291 34.296C116.291 39.416 111.491 42.808 105.283 42.808C99.107 42.808 94.307 39.416 94.307 34.296C94.307 29.144 99.107 25.752 105.283 25.752ZM105.283 29.208C101.283 29.208 98.435 31.096 98.435 34.296C98.435 37.432 101.283 39.352 105.283 39.352C109.315 39.352 112.163 37.432 112.163 34.296C112.163 31.096 109.315 29.208 105.283 29.208ZM91.971 46.776H118.659V50.232H91.971V46.776ZM136.193 47.064H147.457V50.52H120.769V47.064H131.969V42.68H123.841V32.696H140.289V29.528H123.809V26.168H144.449V35.992H128.033V39.288H145.121V42.68H136.193V47.064Z" fill="white"/>
</g>
<defs>
<filter id="filter0_d_2482_2763" x="0" y="0" width="182" height="84" filterUnits="userSpaceOnUse" color-interpolation-filters="sRGB">
<feFlood flood-opacity="0" result="BackgroundImageFix"/>
<feColorMatrix in="SourceAlpha" type="matrix" values="0 0 0 0 0 0 0 0 0 0 0 0 0 0 0 0 0 0 127 0" result="hardAlpha"/>
<feOffset dy="2"/>
<feGaussianBlur stdDeviation="2.5"/>
<feComposite in2="hardAlpha" operator="out"/>
<feColorMatrix type="matrix" values="0 0 0 0 0 0 0 0 0 0 0 0 0 0 0 0 0 0 0.15 0"/>
<feBlend mode="normal" in2="BackgroundImageFix" result="effect1_dropShadow_2482_2763"/>
<feBlend mode="normal" in="SourceGraphic" in2="effect1_dropShadow_2482_2763" result="shape"/>
</filter>
</defs>
</svg>
