<svg width="169" height="70" viewBox="0 0 169 70" fill="none" xmlns="http://www.w3.org/2000/svg">
<rect width="168.535" height="69.6" rx="34.8" fill="#FF4707"/>
<path d="M37.6516 28.5572V29.5812C37.6516 33.8052 39.9236 38.6052 44.6596 40.7172L42.4196 43.9492C39.1876 42.5092 36.8836 39.7572 35.6036 36.4292C34.3556 39.9492 32.0516 42.9252 28.7236 44.4292L26.4836 41.1972C31.2196 38.9892 33.4276 33.9972 33.4276 29.5812V28.5572H27.4756V25.1972H33.4276V21.1012H37.6516V25.1972H43.5076V28.5572H37.6516ZM47.1556 20.3972H51.3796V49.9332H47.1556V35.0852H41.9396V31.6612H47.1556V20.3972ZM69.3931 20.9732C75.8891 20.9732 80.0811 23.1492 80.0811 26.7012C80.0811 30.2852 75.8891 32.4292 69.3931 32.4292C62.8971 32.4292 58.7371 30.2852 58.7371 26.7012C58.7371 23.1492 62.8971 20.9732 69.3931 20.9732ZM69.3931 24.2052C65.3931 24.2052 63.0891 25.0372 63.0891 26.7012C63.0891 28.3652 65.3931 29.1972 69.3931 29.1972C73.4251 29.1972 75.7291 28.3652 75.7291 26.7012C75.7291 25.0372 73.4251 24.2052 69.3931 24.2052ZM59.1851 39.5332H79.5371V49.5172H59.1851V39.5332ZM75.3771 42.8292H63.3131V46.2212H75.3771V42.8292ZM56.0811 34.1252H82.7051V37.4532H56.0811V34.1252ZM98.8306 21.8692C105.039 21.8692 109.839 25.2612 109.839 30.4132C109.839 35.5332 105.039 38.9252 98.8306 38.9252C92.6546 38.9252 87.8546 35.5332 87.8546 30.4132C87.8546 25.2612 92.6546 21.8692 98.8306 21.8692ZM98.8306 25.3252C94.8306 25.3252 91.9826 27.2132 91.9826 30.4132C91.9826 33.5492 94.8306 35.4692 98.8306 35.4692C102.863 35.4692 105.711 33.5492 105.711 30.4132C105.711 27.2132 102.863 25.3252 98.8306 25.3252ZM85.5186 42.8932H112.207V46.3492H85.5186V42.8932ZM130.38 43.1812H141.644V46.6372H114.956V43.1812H126.156V38.7972H118.028V28.8132H134.476V25.6452H117.996V22.2852H138.636V32.1092H122.22V35.4052H139.308V38.7972H130.38V43.1812Z" fill="white"/>
</svg>
