<svg width="447" height="94" viewBox="0 0 447 94" fill="none" xmlns="http://www.w3.org/2000/svg">
<rect width="446.216" height="93.3545" rx="46.6772" fill="#FF4707"/>
<path d="M359.901 33.1816V60.3236H356.055V33.1816H359.901ZM337.205 52.6425C344.201 49.3235 347.288 45.0457 347.9 39.0188H338.659V36.037H351.777C351.766 44.2555 348.879 51.0936 339.186 55.6665L337.205 52.6425Z" fill="white"/>
<path d="M332.137 33.1816V43.8129H336.141V46.9423H332.137V60.3236H328.376V33.1816H332.137ZM310.601 40.2832V37.2382H316.743V33.6136H320.536V37.2382H326.542V40.2832H310.601ZM311.696 48.2699C311.686 44.4873 314.636 41.8005 318.64 41.8005C322.591 41.8005 325.552 44.4873 325.562 48.2699C325.552 52.063 322.591 54.7287 318.64 54.7393C314.636 54.7287 311.686 52.063 311.696 48.2699ZM315.342 48.2699C315.331 50.3772 316.722 51.631 318.64 51.6205C320.536 51.631 321.906 50.3772 321.927 48.2699C321.906 46.1942 320.536 44.9087 318.64 44.8877C316.722 44.9087 315.331 46.1942 315.342 48.2699Z" fill="white"/>
<path d="M307.231 33.1795V49.5953H303.437V44.2533H299.929V41.1556H303.437V33.1795H307.231ZM284.43 38.5847V35.5607H290.551V32.9688H294.313V35.5607H300.414V38.5847H284.43ZM285.915 44.3587C285.915 41.5033 288.644 39.4803 292.448 39.4803C296.252 39.4803 298.949 41.5033 298.949 44.3587C298.949 47.2984 296.252 49.2476 292.448 49.2581C288.644 49.2476 285.915 47.2984 285.915 44.3587ZM289.003 60.0159V50.7332H307.231V60.0159H289.003ZM289.571 44.3587C289.55 45.7179 290.678 46.4449 292.448 46.4449C294.165 46.4449 295.303 45.7179 295.303 44.3587C295.303 43.0627 294.165 42.3357 292.448 42.3462C290.678 42.3357 289.55 43.0627 289.571 44.3587ZM292.806 56.9708H303.511V53.7256H292.806V56.9708Z" fill="white"/>
<path d="M266.466 41.4528C266.456 45.5725 267.941 49.6818 271.798 51.7574L269.712 54.5391C267.257 53.2852 265.644 51.0936 264.696 48.449C263.748 51.3149 262.136 53.7594 259.67 55.1923L257.489 52.3369C261.409 50.0611 262.863 45.6463 262.884 41.4528V40.8311H258.511V37.7861H262.884V34.1299H266.435V37.7861H270.734V40.8311H266.466V41.4528ZM269.143 46.584V43.4863H272.335V33.6347H275.896V59.0592H272.335V46.584H269.143ZM277.846 60.3236V33.1816H281.439V60.3236H277.846Z" fill="white"/>
<path d="M233.062 41.4528C233.052 45.5725 234.537 49.6818 238.393 51.7574L236.307 54.5391C233.852 53.2852 232.24 51.0936 231.292 48.449C230.344 51.3149 228.732 53.7594 226.266 55.1923L224.085 52.3369C228.005 50.0611 229.459 45.6463 229.48 41.4528V40.8311H225.107V37.7861H229.48V34.1299H233.03V37.7861H237.329V40.8311H233.062V41.4528ZM235.738 46.584V43.4863H238.931V33.6347H242.492V59.0592H238.931V46.584H235.738ZM244.441 60.3236V33.1816H248.034V60.3236H244.441Z" fill="white"/>
<path d="M220.925 33.2227V49.3013H217.111V33.2227H220.925ZM199.62 37.7533V34.7715H212.19V42.8951H203.392V45.2553C207.912 45.2448 211.105 45.1289 214.75 44.5283L215.225 47.5628C211.073 48.2266 207.417 48.3636 202.033 48.3636H199.652V40.0081H208.429V37.7533H199.62ZM202.749 60.0169V50.4814H220.925V60.0169H202.749ZM206.5 56.9719H217.195V53.4948H206.5V56.9719Z" fill="white"/>
<path d="M184.207 33.4336C190.455 33.4441 194.059 35.0773 194.069 38.0696C194.059 41.0725 190.455 42.7057 184.207 42.7057C177.948 42.7057 174.324 41.0725 174.334 38.0696C174.324 35.0773 177.948 33.4441 184.207 33.4336ZM171.858 46.8992V43.9385H196.598V46.8992H186.083V48.7115H193.574V55.6339H178.465V57.2671H194.28V60.133H174.735V52.9788H189.823V51.5036H174.714V48.7115H182.268V46.8992H171.858ZM178.317 38.0696C178.296 39.3867 180.235 39.9241 184.207 39.9241C188.232 39.9241 190.15 39.3867 190.15 38.0696C190.15 36.8474 188.232 36.2468 184.207 36.2363C180.235 36.2468 178.296 36.8474 178.317 38.0696Z" fill="white"/>
<path d="M152.957 35.0993C156.613 35.0993 159.353 38.1127 159.88 42.9911H164.6V33.1816H168.361V60.3868H164.6V46.0361H159.922C159.532 51.2412 156.729 54.4442 152.957 54.4442C148.837 54.4442 145.898 50.7143 145.908 44.7507C145.898 38.8503 148.837 35.0993 152.957 35.0993ZM149.554 44.7507C149.543 48.8072 150.934 50.9988 152.957 50.9988C155.001 50.9988 156.36 48.8072 156.371 44.7507C156.36 40.7363 155.001 38.5342 152.957 38.5342C150.934 38.5342 149.543 40.7363 149.554 44.7507Z" fill="white"/>
<path d="M143.918 54.074V57.1612H119.115V54.074H129.588V48.0261H133.403V54.074H143.918ZM120.116 46.2243C125.743 45.3182 129.104 41.9254 129.43 38.3325H121.18V35.2559H141.748V38.3325H133.487C133.814 41.9149 137.196 45.2128 143.012 46.0663L141.505 49.0692C136.753 48.2368 133.234 45.9188 131.485 42.7051C129.768 45.982 126.291 48.3738 121.612 49.2272L120.116 46.2243Z" fill="white"/>
<path d="M116.176 33.1816V60.3236H112.584V46.7105H109.97V58.996H106.483V33.6558H109.97V43.6654H112.584V33.1816H116.176ZM93.502 54.1703V36.332H103.628V39.3876H97.3162V50.9883C99.9397 50.9461 102.268 50.7986 104.881 50.3245L105.166 53.4222C101.857 54.0649 98.9704 54.1598 95.3985 54.1703H93.502Z" fill="white"/>
<path d="M81.4907 34.9834V38.0284H79.2675V45.267C80.1737 45.1932 81.0587 45.1089 81.9122 45.0141L82.0597 47.8063C76.9706 48.6492 71.0491 48.7651 66.7607 48.7651L66.3604 45.6674C67.256 45.6674 68.2253 45.6568 69.2368 45.6463V38.0284H67.0558V34.9834H81.4907ZM70.6382 55.2872C70.6276 52.0314 74.1363 50.198 79.9524 50.198C85.7791 50.198 89.2877 52.0314 89.2983 55.2872C89.2877 58.4376 85.7791 60.3236 79.9524 60.3131C74.1363 60.3236 70.6276 58.4376 70.6382 55.2872ZM72.9246 45.5831C73.8202 45.562 74.7263 45.5304 75.6324 45.4882V38.0284H72.9246V45.5831ZM74.4208 55.2872C74.4102 56.7096 76.3279 57.4155 79.9524 57.4261C83.577 57.4155 85.5157 56.7096 85.5262 55.2872C85.5157 53.8015 83.577 53.085 79.9524 53.085C76.3279 53.085 74.4102 53.8015 74.4208 55.2872ZM82.1124 45.7095V42.675H85.4314V40.5888H82.1124V37.607H85.4314V33.1816H89.2245V49.7766H85.4314V45.7095H82.1124Z" fill="white"/>
<path d="M64.7396 47.0578V50.0818H40V47.0578H64.7396ZM42.4761 39.5664C42.4655 36.1104 46.3851 34.0137 52.3487 34.0137C58.2913 34.0137 62.2003 36.1104 62.2109 39.5664C62.2003 43.0434 58.2913 45.1823 52.3487 45.1823C46.3851 45.1823 42.4655 43.0434 42.4761 39.5664ZM42.9818 59.8491V51.9046H46.796V56.783H61.9159V59.8491H42.9818ZM46.4272 39.5664C46.4062 41.2628 48.5872 42.1057 52.3487 42.0951C56.0997 42.1057 58.2913 41.2628 58.2913 39.5664C58.2913 37.9332 56.0997 37.0376 52.3487 37.0271C48.5872 37.0376 46.4062 37.9332 46.4272 39.5664Z" fill="white"/>
<path d="M375.901 48.3203L375.901 45.112L404.655 45.112L404.655 48.3203L375.901 48.3203Z" fill="white"/>
<path d="M398.044 42.3798L389.934 34.2696L392.203 32.001L402.581 42.3798L398.044 42.3798ZM389.934 59.0868L402.343 46.6787L400.772 45.1073L405.309 45.1073L405.746 45.5444C406.047 45.8452 406.216 46.2534 406.216 46.6787C406.216 47.104 406.047 47.5123 405.746 47.813L392.203 61.3555L389.934 59.0868Z" fill="white"/>
</svg>
