<svg width="172" height="74" viewBox="0 0 172 74" fill="none" xmlns="http://www.w3.org/2000/svg">
<rect x="1.5" y="1.5" width="169" height="71" rx="35.5" fill="white"/>
<rect x="1.5" y="1.5" width="169" height="71" rx="35.5" stroke="#FF4707" stroke-width="3"/>
<path d="M37.92 40.096V27.616H34.144V40.096H37.92ZM44.672 31.968V21.728H48.608V49.408H44.672V35.392H41.824V43.392H30.208V24.288H41.824V31.968H44.672ZM50.656 21.248H54.656V50.72H50.656V21.248ZM65.1175 26.784V34.592H77.8215V26.784H65.1175ZM73.5975 43.904H84.8615V47.328H58.1735V43.904H69.3735V37.92H60.9895V23.456H81.9495V37.92H73.5975V43.904ZM93.979 31.008V35.136H106.587V31.008H93.979ZM102.395 43.904H113.659V47.328H86.971V43.904H98.171V38.496H89.787V23.104H93.979V27.68H106.587V23.104H110.747V38.496H102.395V43.904ZM117.401 24.32H131.545C131.545 33.344 128.505 40.704 118.041 45.76L115.833 42.432C123.353 38.816 126.617 34.208 127.225 27.68H117.401V24.32ZM136.057 21.248H140.313V50.72H136.057V21.248Z" fill="#FF4707"/>
</svg>
