<svg width="172" height="74" viewBox="0 0 172 74" fill="none" xmlns="http://www.w3.org/2000/svg">
<rect width="172" height="74" rx="37" fill="#FF4707"/>
<path d="M40.448 27.52V28.544C40.448 33.728 42.784 39.168 47.68 41.408L45.248 44.736C41.92 43.104 39.648 40.064 38.368 36.384C37.12 40.352 34.816 43.616 31.424 45.312L28.928 41.984C33.856 39.68 36.192 34.016 36.192 28.544V27.52H30.144V24.096H46.496V27.52H40.448ZM49.888 21.248H54.112V50.816H49.888V34.976H44.704V31.552H49.888V21.248ZM75.7415 34.656L73.7255 37.92C70.4935 36.96 68.2535 35.008 66.9735 32.576C65.6615 35.488 63.3255 37.824 59.8695 38.944L57.7575 35.648C62.5255 34.048 64.6375 30.304 64.7015 26.624H58.8455V23.232H74.7815V26.624H69.0215C69.0855 29.984 71.1015 33.28 75.7415 34.656ZM71.7415 47.52C75.4855 47.52 77.5015 46.72 77.5015 45.056C77.5015 43.36 75.4855 42.56 71.7415 42.56C67.9655 42.56 65.9495 43.36 65.9495 45.056C65.9495 46.72 67.9655 47.52 71.7415 47.52ZM71.7415 39.296C77.8535 39.296 81.6935 41.44 81.6935 45.056C81.6935 48.64 77.8535 50.752 71.7415 50.752C65.5975 50.752 61.7575 48.64 61.7575 45.056C61.7575 41.44 65.5975 39.296 71.7415 39.296ZM81.3735 28.064H85.2775V31.52H81.3735V38.784H77.1495V21.28H81.3735V28.064ZM95.483 41.28C97.467 41.28 98.907 39.936 98.907 37.664C98.907 35.456 97.467 34.08 95.483 34.08C93.499 34.08 92.027 35.456 92.027 37.696C92.027 39.936 93.499 41.28 95.483 41.28ZM95.483 30.656C99.739 30.656 102.907 33.568 102.907 37.664C102.907 41.824 99.739 44.736 95.483 44.736C91.195 44.736 87.995 41.824 87.995 37.664C87.995 33.568 91.195 30.656 95.483 30.656ZM97.563 21.792V25.632H103.963V28.992H86.811V25.632H93.339V21.792H97.563ZM114.331 32.8V36.288H110.107V50.752H105.883V21.28H110.107V32.8H114.331ZM117.401 24.32H131.545C131.545 33.344 128.505 40.704 118.041 45.76L115.833 42.432C123.353 38.816 126.617 34.208 127.225 27.68H117.401V24.32ZM136.057 21.248H140.313V50.72H136.057V21.248Z" fill="white"/>
</svg>
